<?xml version="1.0" encoding="UTF-8" standalone="no"?>
<svg
   aria-hidden="true"
   focusable="false"
   data-prefix="fas"
   data-icon="times-circle"
   class="svg-inline--fa fa-times-circle fa-w-16"
   role="img"
   viewBox="0 0 512 512"
   version="1.1"
   id="svg4"
   sodipodi:docname="cancel.svg"
   inkscape:version="1.1.1 (26b7af14f2, 2022-01-19)"
   xmlns:inkscape="http://www.inkscape.org/namespaces/inkscape"
   xmlns:sodipodi="http://sodipodi.sourceforge.net/DTD/sodipodi-0.dtd"
   xmlns="http://www.w3.org/2000/svg"
   xmlns:svg="http://www.w3.org/2000/svg">
  <defs
     id="defs8" />
  <sodipodi:namedview
     id="namedview6"
     pagecolor="#505050"
     bordercolor="#eeeeee"
     borderopacity="1"
     inkscape:pageshadow="0"
     inkscape:pageopacity="0"
     inkscape:pagecheckerboard="0"
     showgrid="false"
     inkscape:snap-global="false"
     inkscape:zoom="0.97265625"
     inkscape:cx="256"
     inkscape:cy="256"
     inkscape:window-width="1850"
     inkscape:window-height="1016"
     inkscape:window-x="70"
     inkscape:window-y="27"
     inkscape:window-maximized="1"
     inkscape:current-layer="svg4" />
  <path
     fill="currentColor"
     d="M256 8C119 8 8 119 8 256s111 248 248 248 248-111 248-248S393 8 256 8zm121.6 313.1c4.7 4.7 4.7 12.3 0 17L338 377.6c-4.7 4.7-12.3 4.7-17 0L256 312l-65.1 65.6c-4.7 4.7-12.3 4.7-17 0L134.4 338c-4.7-4.7-4.7-12.3 0-17l65.6-65-65.6-65.1c-4.7-4.7-4.7-12.3 0-17l39.6-39.6c4.7-4.7 12.3-4.7 17 0l65 65.7 65.1-65.6c4.7-4.7 12.3-4.7 17 0l39.6 39.6c4.7 4.7 4.7 12.3 0 17L312 256l65.6 65.1z"
     id="path2" />
  <path
     id="path2-3"
     style="fill:#ffffff;fill-opacity:1"
     sodipodi:type="inkscape:offset"
     inkscape:radius="-15.847813"
     inkscape:original="M 256 8 C 119 8 8 119 8 256 C 8 393 119 504 256 504 C 393 504 504 393 504 256 C 504 119 393 8 256 8 z M 182.5 130.77539 C 185.575 130.77539 188.65 131.95078 191 134.30078 L 256 200 L 321.09961 134.40039 C 325.79961 129.70039 333.39961 129.70039 338.09961 134.40039 L 377.69922 174 C 382.39922 178.7 382.39922 186.3 377.69922 191 L 312 256 L 377.59961 321.09961 C 382.29961 325.79961 382.29961 333.39961 377.59961 338.09961 L 338 377.59961 C 333.3 382.29961 325.7 382.29961 321 377.59961 L 256 312 L 190.90039 377.59961 C 186.20039 382.29961 178.60039 382.29961 173.90039 377.59961 L 134.40039 338 C 129.70039 333.3 129.70039 325.7 134.40039 321 L 200 256 L 134.40039 190.90039 C 129.70039 186.20039 129.70039 178.60039 134.40039 173.90039 L 174 134.30078 C 176.35 131.95078 179.425 130.77539 182.5 130.77539 z "
     d="M 256,23.847656 C 127.56013,23.847656 23.847656,127.56013 23.847656,256 23.847656,384.43987 127.56013,488.15234 256,488.15234 384.43987,488.15234 488.15234,384.43987 488.15234,256 488.15234,127.56013 384.43987,23.847656 256,23.847656 Z m -73.5,91.080074 c 7.11345,0 14.33757,2.79656 19.70703,8.16602 a 15.849397,15.849397 0 0 1 0.0586,0.0606 l 53.75196,54.33008 53.83398,-54.24805 a 15.849397,15.849397 0 0 1 0.041,-0.043 c 10.74016,-10.74017 28.6739,-10.74017 39.41406,0 l 39.59961,39.59961 c 10.74017,10.74016 10.74017,28.6739 0,39.41406 a 15.849397,15.849397 0 0 1 -0.0605,0.0586 l -54.33008,53.75196 54.24805,53.83398 a 15.849397,15.849397 0 0 1 0.043,0.041 c 10.74017,10.74016 10.74017,28.6739 0,39.41406 a 15.849397,15.849397 0 0 1 -0.0156,0.0137 l -39.59961,39.5 c -10.74185,10.72522 -28.66326,10.72151 -39.39844,-0.0137 a 15.849397,15.849397 0 0 1 -0.0508,-0.0527 l -53.75,-54.2461 -53.84375,54.25586 a 15.849397,15.849397 0 0 1 -0.041,0.043 c -10.74016,10.74017 -28.6739,10.74017 -39.41406,0 a 15.849397,15.849397 0 0 1 -0.0137,-0.0156 l -39.48633,-39.58399 -0.008,-0.01 -0.006,-0.006 c -10.72522,-10.74185 -10.72151,-28.66326 0.0137,-39.39844 a 15.849397,15.849397 0 0 1 0.0527,-0.0508 l 54.2461,-53.75 -54.25586,-53.84375 a 15.849397,15.849397 0 0 1 -0.043,-0.041 c -10.74017,-10.74016 -10.74017,-28.6739 0,-39.41406 l 39.59961,-39.59961 c 5.36946,-5.36946 12.59358,-8.16602 19.70703,-8.16602 z" />
</svg>
