<?xml version="1.0" encoding="UTF-8" standalone="no"?>
<svg
   aria-hidden="true"
   focusable="false"
   data-prefix="fas"
   data-icon="database"
   class="svg-inline--fa fa-database fa-w-14"
   role="img"
   viewBox="0 0 512 512"
   version="1.1"
   id="svg4"
   sodipodi:docname="db.svg"
   width="512"
   height="512"
   inkscape:version="1.1 (1:1.1+202105261517+ce6663b3b7)"
   xmlns:inkscape="http://www.inkscape.org/namespaces/inkscape"
   xmlns:sodipodi="http://sodipodi.sourceforge.net/DTD/sodipodi-0.dtd"
   xmlns="http://www.w3.org/2000/svg"
   xmlns:svg="http://www.w3.org/2000/svg">
  <defs
     id="defs8" />
  <sodipodi:namedview
     id="namedview6"
     pagecolor="#ffffff"
     bordercolor="#666666"
     borderopacity="1.0"
     inkscape:pageshadow="2"
     inkscape:pageopacity="0.0"
     inkscape:pagecheckerboard="0"
     showgrid="false"
     width="512px"
     inkscape:snap-page="true"
     inkscape:snap-bbox="true"
     inkscape:bbox-paths="true"
     inkscape:bbox-nodes="true"
     inkscape:snap-bbox-edge-midpoints="true"
     inkscape:snap-bbox-midpoints="true"
     inkscape:snap-object-midpoints="true"
     inkscape:snap-center="true"
     inkscape:zoom="0.48828125"
     inkscape:cx="376.832"
     inkscape:cy="265.216"
     inkscape:window-width="1366"
     inkscape:window-height="683"
     inkscape:window-x="0"
     inkscape:window-y="0"
     inkscape:window-maximized="1"
     inkscape:current-layer="svg4"
     inkscape:snap-global="false" />
  <circle
     style="color:#000000;overflow:visible;fill:#ffffff;fill-rule:evenodd;stroke-width:7.55906;stroke-linejoin:round;paint-order:stroke fill markers"
     id="path32"
     cx="256"
     cy="256"
     r="256" />
  <path
     fill="currentColor"
     d="m 415.93086,125.44428 v 32.63876 c 0,28.76327 -71.63546,52.22242 -159.93086,52.22242 -88.29541,0 -159.930874,-23.45915 -159.930874,-52.22242 v -32.63876 c 0,-28.763276 71.635464,-52.222423 159.930874,-52.222423 88.2954,0 159.93086,23.459147 159.93086,52.222423 z m 0,73.43754 v 73.43755 c 0,28.76329 -71.63546,52.22242 -159.93086,52.22242 -88.29541,0 -159.930874,-23.45913 -159.930874,-52.22242 v -73.43755 c 34.360144,23.66334 97.249384,34.6793 159.930874,34.6793 62.68148,0 125.57,-11.01596 159.93086,-34.6793 z m 0,114.23635 v 73.43754 c 0,28.76328 -71.63546,52.22243 -159.93086,52.22243 -88.29541,0 -159.930874,-23.45915 -159.930874,-52.22243 V 313.11817 C 130.42927,336.78151 193.31851,347.79746 256,347.79746 c 62.68148,0 125.57,-11.01595 159.93086,-34.67929 z"
     id="path2"
     style="stroke-width:0.713976" />
</svg>
