<?xml version="1.0" encoding="UTF-8" standalone="no"?>
<svg
   height="24px"
   viewBox="0 0 24 24"
   width="24px"
   fill="#FFFFFF"
   version="1.1"
   id="svg6"
   sodipodi:docname="file_download_white_24dp.svg"
   inkscape:version="1.1.1 (26b7af14f2, 2022-01-19)"
   xmlns:inkscape="http://www.inkscape.org/namespaces/inkscape"
   xmlns:sodipodi="http://sodipodi.sourceforge.net/DTD/sodipodi-0.dtd"
   xmlns="http://www.w3.org/2000/svg"
   xmlns:svg="http://www.w3.org/2000/svg">
  <defs
     id="defs10" />
  <sodipodi:namedview
     id="namedview8"
     pagecolor="#505050"
     bordercolor="#eeeeee"
     borderopacity="1"
     inkscape:pageshadow="0"
     inkscape:pageopacity="0"
     inkscape:pagecheckerboard="0"
     showgrid="false"
     inkscape:zoom="20.75"
     inkscape:cx="12"
     inkscape:cy="12"
     inkscape:window-width="1850"
     inkscape:window-height="1016"
     inkscape:window-x="70"
     inkscape:window-y="27"
     inkscape:window-maximized="1"
     inkscape:current-layer="svg6" />
  <path
     d="M0 0h24v24H0z"
     fill="none"
     id="path2" />
  <path
     id="path4-3"
     sodipodi:type="inkscape:offset"
     inkscape:radius="1.3106464"
     inkscape:original="M 9 3 L 9 9 L 5 9 L 12 16 L 19 9 L 15 9 L 15 3 L 9 3 z M 5 18 L 5 20 L 19 20 L 19 18 L 5 18 z "
     d="M 9,1.6894531 A 1.3107775,1.3107775 0 0 0 7.6894531,3 V 7.6894531 H 5 A 1.3107775,1.3107775 0 0 0 4.0722656,9.9277344 L 10.833984,16.689453 H 5 A 1.3107775,1.3107775 0 0 0 3.6894531,18 v 2 A 1.3107775,1.3107775 0 0 0 5,21.310547 H 19 A 1.3107775,1.3107775 0 0 0 20.310547,20 V 18 A 1.3107775,1.3107775 0 0 0 19,16.689453 H 13.166016 L 19.927734,9.9277344 A 1.3107775,1.3107775 0 0 0 19,7.6894531 H 16.310547 V 3 A 1.3107775,1.3107775 0 0 0 15,1.6894531 Z"
     style="fill:#000000;fill-opacity:1" />
  <path
     d="M19 9h-4V3H9v6H5l7 7 7-7zM5 18v2h14v-2H5z"
     id="path4"
     style="fill:#ffffff;fill-opacity:1" />
</svg>
