<?xml version="1.0" encoding="UTF-8" standalone="no"?>
<svg
   aria-hidden="true"
   focusable="false"
   data-prefix="fas"
   data-icon="eye"
   class="svg-inline--fa fa-eye fa-w-18"
   role="img"
   viewBox="0 0 576 512"
   version="1.1"
   id="svg4"
   sodipodi:docname="eye.svg"
   inkscape:version="1.1.1 (26b7af14f2, 2022-01-19)"
   xmlns:inkscape="http://www.inkscape.org/namespaces/inkscape"
   xmlns:sodipodi="http://sodipodi.sourceforge.net/DTD/sodipodi-0.dtd"
   xmlns="http://www.w3.org/2000/svg"
   xmlns:svg="http://www.w3.org/2000/svg">
  <defs
     id="defs8" />
  <sodipodi:namedview
     id="namedview6"
     pagecolor="#505050"
     bordercolor="#eeeeee"
     borderopacity="1"
     inkscape:pageshadow="0"
     inkscape:pageopacity="0"
     inkscape:pagecheckerboard="0"
     showgrid="false"
     inkscape:zoom="0.97265625"
     inkscape:cx="287.87149"
     inkscape:cy="256"
     inkscape:window-width="1850"
     inkscape:window-height="1016"
     inkscape:window-x="70"
     inkscape:window-y="27"
     inkscape:window-maximized="1"
     inkscape:current-layer="svg4" />
  <path
     fill="currentColor"
     d="M572.52 241.4C518.29 135.59 410.93 64 288 64S57.68 135.64 3.48 241.41a32.35 32.35 0 0 0 0 29.19C57.71 376.41 165.07 448 288 448s230.32-71.64 284.52-177.41a32.35 32.35 0 0 0 0-29.19zM288 400a144 144 0 1 1 144-144 143.93 143.93 0 0 1-144 144zm0-240a95.31 95.31 0 0 0-25.31 3.79 47.85 47.85 0 0 1-66.9 66.9A95.78 95.78 0 1 0 288 160z"
     id="path2" />
  <path
     id="path2-3"
     style="fill:#ffffff;fill-opacity:1"
     sodipodi:type="inkscape:offset"
     inkscape:radius="0"
     inkscape:original="M 288 82.103516 C 172.13021 82.103516 70.927157 149.55051 19.628906 249.59766 C 17.63693 253.55362 17.636834 258.44941 19.626953 262.40625 C 70.955893 362.49915 172.12381 429.89648 288 429.89648 C 403.86979 429.89648 505.07284 362.44949 556.37109 262.40234 C 558.36307 258.44638 558.36317 253.55059 556.37305 249.59375 C 505.04411 149.50085 403.87619 82.103516 288 82.103516 z M 289.76562 130.11523 C 284.84031 130.04602 307.86348 131.58401 302.97266 130.99805 C 299.31604 130.55995 308.5485 132.06237 312.72266 132.68945 C 313.55705 133.12866 321.28499 135.26697 326.09766 136.47266 C 329.224 137.69106 332.83803 139.01197 336.01172 140.09766 C 339.02408 141.57421 342.50949 143.19459 345.58008 144.54297 C 348.45722 146.26729 351.79685 148.17318 354.74414 149.77539 C 357.46728 151.73627 360.63704 153.91939 363.43945 155.76367 C 365.9883 157.94651 368.96117 160.38647 371.59766 162.45898 C 373.95408 164.84839 376.7112 167.52972 379.16406 169.81641 C 381.31058 172.39454 383.83186 175.29622 386.08398 177.78125 C 388.00544 180.52966 390.27275 183.63246 392.30859 186.29883 C 393.99441 189.20294 395.99949 192.49766 397.80469 195.32617 C 399.23952 198.35895 400.95294 201.79337 402.51172 204.75977 C 403.68579 207.90098 405.10686 211.4723 406.41211 214.5625 C 407.31797 217.79147 408.43526 221.47198 409.47656 224.66211 C 410.10788 227.95607 410.91214 231.71805 411.68164 234.98438 C 412.03409 238.3214 412.51757 242.14054 413.00977 245.45898 C 413.07844 248.71216 413.23002 252.32829 413.43555 255.68359 C 413.15488 259.28698 412.89967 264.53369 412.81641 268.29688 C 412.18364 271.90803 411.45378 276.83946 411.01367 280.48047 C 410.02968 284.01335 408.81994 288.84399 408.02539 292.42188 C 406.70013 295.84006 405.0266 300.52489 403.88477 304.00781 C 402.23037 307.27974 400.10138 311.78337 398.62305 315.13867 C 396.65723 318.23038 394.10343 322.49322 392.30273 325.6875 C 390.04207 328.57243 387.07301 332.57801 384.9668 335.58203 C 382.43343 338.2324 379.08997 341.9204 376.70117 344.70117 C 373.9204 347.08997 370.2324 350.43343 367.58203 352.9668 C 364.57801 355.07301 360.57243 358.04207 357.6875 360.30273 C 354.49322 362.10343 350.23038 364.65723 347.13867 366.62305 C 343.78337 368.10138 339.27974 370.23037 336.00781 371.88477 C 332.52489 373.0266 327.84005 374.70013 324.42188 376.02539 C 320.84399 376.81994 316.01335 378.02968 312.48047 379.01367 C 308.83946 379.45378 303.90803 380.18364 300.29688 380.81641 C 294.98696 380.93389 285.2172 381.44888 284.88867 381.73242 C 280.95624 381.42058 271.03566 380.80583 274.78125 381.20117 C 279.67984 381.71821 256.89175 378.09258 261.70898 379.12109 C 266.52621 380.14961 244.24317 374.15303 248.92578 375.68164 C 253.6084 377.21026 232.07994 368.90615 236.57617 370.91797 C 241.07241 372.92979 220.53477 362.41003 224.79492 364.88281 C 229.05507 367.35559 209.73592 354.74008 213.71289 357.64648 C 217.68987 360.55289 199.80134 345.97725 203.45117 349.28516 C 207.10101 352.59306 190.8407 336.21974 194.12305 339.89258 C 197.40539 343.56542 182.95541 325.5751 185.83398 329.57227 C 188.71256 333.56943 176.23085 314.16214 178.67383 318.43945 C 181.11681 322.71677 170.74228 302.10506 172.72266 306.61523 C 174.70303 311.12541 166.54904 289.53925 168.04492 294.23242 C 169.54081 298.92559 163.6985 276.60344 164.69336 281.42773 C 165.68822 286.25203 162.22225 263.43776 162.70508 268.33984 C 163.18791 273.24193 162.1361 250.19151 162.10156 255.11719 C 162.06703 260.04287 163.44214 237.00947 162.89062 241.9043 C 162.33911 246.79913 166.1249 224.03583 165.0625 228.8457 C 164.0001 233.65557 170.15334 211.41811 168.5918 216.08984 C 167.03025 220.76158 175.48678 199.29148 173.44336 203.77344 C 171.39994 208.2554 182.06326 187.79057 179.56055 192.0332 C 177.05784 196.27584 189.80933 177.04554 186.875 181.00195 C 183.94067 184.95837 198.64211 167.17433 195.30859 170.80078 C 191.97507 174.42724 208.46148 158.28266 204.76562 161.53906 C 201.06977 164.79547 219.16187 150.4719 215.14453 153.32227 C 211.1272 156.17263 230.62253 143.82743 226.32812 146.24023 C 222.03372 148.65304 242.71736 138.42447 238.19336 140.37305 C 233.66936 142.32162 255.31296 134.32039 250.60938 135.7832 C 245.90579 137.24601 268.26868 131.56062 263.4375 132.52148 C 258.60632 133.48235 281.44247 130.17669 276.53711 130.625 C 271.63175 131.07331 294.69094 130.18444 289.76562 130.11523 z M 247.50781 173.79297 C 247.20976 173.6555 249.53227 177.53775 250.62109 179.13477 C 251.04905 180.44628 251.93781 182.75351 252.50195 184.01367 C 252.69175 185.38087 253.16138 187.80924 253.49414 189.14844 C 253.43974 190.52742 253.47353 192.99583 253.56445 194.37305 C 253.26741 195.72025 252.86264 198.15914 252.70898 199.53125 C 252.17846 200.80559 251.34817 203.13825 250.95508 204.46094 C 250.20701 205.62348 248.97874 207.7712 248.35938 209.00195 C 247.41858 210.01343 245.83563 211.90503 245.00781 213.00781 C 243.90503 213.83563 242.01343 215.41857 241.00195 216.35938 C 239.7712 216.97874 237.62348 218.20701 236.46094 218.95508 C 235.13825 219.34817 232.80559 220.17846 231.53125 220.70898 C 230.15914 220.86264 227.72025 221.26741 226.37305 221.56445 C 224.99583 221.47353 222.52742 221.43974 221.14844 221.49414 C 219.80924 221.16138 217.38087 220.69175 216.01367 220.50195 C 214.75351 219.93781 212.44628 219.04905 211.13477 218.62109 C 209.19547 217.2989 203.82064 214.12321 206.51953 216.10938 A 18.10512 18.10512 0 0 1 213.25977 235.43164 C 204.81572 266.54041 218.1805 302.32706 244.94922 320.28516 C 271.71793 338.24325 309.90024 337.03724 335.48242 317.42578 C 361.06461 297.81433 372.14609 261.25613 361.75586 230.74219 C 351.3789 200.26721 320.35623 178.09075 288.16602 178.10938 C 281.26415 178.21331 274.37756 179.24264 267.75 181.17188 A 18.10512 18.10512 0 0 1 248.10938 174.51953 C 247.75881 174.04318 247.57169 173.82243 247.50781 173.79297 z "
     d="m 288,82.103516 c -115.86979,0 -217.072843,67.446994 -268.371094,167.494144 -1.991976,3.95596 -1.992072,8.85175 -0.002,12.80859 C 70.955893,362.49915 172.12381,429.89648 288,429.89648 c 115.86979,0 217.07284,-67.44699 268.37109,-167.49414 1.99198,-3.95596 1.99208,-8.85175 0.002,-12.80859 C 505.04411,149.50085 403.87619,82.103516 288,82.103516 Z m 1.76562,48.011714 c -4.92531,-0.0692 18.09786,1.46878 13.20704,0.88282 -3.65662,-0.4381 5.57584,1.06432 9.75,1.6914 0.83439,0.43921 8.56233,2.57752 13.375,3.78321 3.12634,1.2184 6.74037,2.53931 9.91406,3.625 3.01236,1.47655 6.49777,3.09693 9.56836,4.44531 2.87714,1.72432 6.21677,3.63021 9.16406,5.23242 2.72314,1.96088 5.8929,4.144 8.69531,5.98828 2.54885,2.18284 5.52172,4.6228 8.15821,6.69531 2.35642,2.38941 5.11354,5.07074 7.5664,7.35743 2.14652,2.57813 4.6678,5.47981 6.91992,7.96484 1.92146,2.74841 4.18877,5.85121 6.22461,8.51758 1.68582,2.90411 3.6909,6.19883 5.4961,9.02734 1.43483,3.03278 3.14825,6.4672 4.70703,9.4336 1.17407,3.14121 2.59514,6.71253 3.90039,9.80273 0.90586,3.22897 2.02315,6.90948 3.06445,10.09961 0.63132,3.29396 1.43558,7.05594 2.20508,10.32227 0.35245,3.33702 0.83593,7.15616 1.32813,10.4746 0.0687,3.25318 0.22025,6.86931 0.42578,10.22461 -0.28067,3.60339 -0.53588,8.8501 -0.61914,12.61329 -0.63277,3.61115 -1.36263,8.54258 -1.80274,12.18359 -0.98399,3.53288 -2.19373,8.36352 -2.98828,11.94141 -1.32526,3.41818 -2.99879,8.10301 -4.14062,11.58593 -1.6544,3.27193 -3.78339,7.77556 -5.26172,11.13086 -1.96582,3.09171 -4.51962,7.35455 -6.32032,10.54883 -2.26066,2.88493 -5.22972,6.89051 -7.33593,9.89453 -2.53337,2.65037 -5.87683,6.33837 -8.26563,9.11914 -2.78077,2.3888 -6.46877,5.73226 -9.11914,8.26563 -3.00402,2.10621 -7.0096,5.07527 -9.89453,7.33593 -3.19428,1.8007 -7.45712,4.3545 -10.54883,6.32032 -3.3553,1.47833 -7.85893,3.60732 -11.13086,5.26172 -3.48292,1.14183 -8.16776,2.81536 -11.58593,4.14062 -3.57789,0.79455 -8.40853,2.00429 -11.94141,2.98828 -3.64101,0.44011 -8.57244,1.16997 -12.18359,1.80274 -5.30992,0.11748 -15.07968,0.63247 -15.40821,0.91601 -3.93243,-0.31184 -13.85301,-0.92659 -10.10742,-0.53125 4.89859,0.51704 -17.8895,-3.10859 -13.07227,-2.08008 4.81723,1.02852 -17.46581,-4.96806 -12.7832,-3.43945 4.68262,1.52862 -16.84584,-6.77549 -12.34961,-4.76367 4.49624,2.01182 -16.0414,-8.50794 -11.78125,-6.03516 4.26015,2.47278 -15.059,-10.14273 -11.08203,-7.23633 3.97698,2.90641 -13.91155,-11.66923 -10.26172,-8.36132 3.64984,3.3079 -12.61047,-13.06542 -9.32812,-9.39258 3.28234,3.67284 -11.16764,-14.31748 -8.28907,-10.32031 2.87858,3.99716 -9.60313,-15.41013 -7.16015,-11.13282 2.44298,4.27732 -7.93155,-16.33439 -5.95117,-11.82422 1.98037,4.51018 -6.17362,-17.07598 -4.67774,-12.38281 1.49589,4.69317 -4.34642,-17.62898 -3.35156,-12.80469 0.99486,4.8243 -2.47111,-17.98997 -1.98828,-13.08789 0.48283,4.90209 -0.56898,-18.14833 -0.60352,-13.22265 -0.0345,4.92568 1.34058,-18.10772 0.78906,-13.21289 -0.55151,4.89483 3.23428,-17.86847 2.17188,-13.0586 -1.0624,4.80987 5.09084,-17.42759 3.5293,-12.75586 -1.56155,4.67174 6.89498,-16.79836 4.85156,-12.3164 -2.04342,4.48196 8.6199,-15.98287 6.11719,-11.74024 -2.50271,4.24264 10.24878,-14.98766 7.31445,-11.03125 -2.93433,3.95642 11.76711,-13.82762 8.43359,-10.20117 -3.33352,3.62646 13.15289,-12.51812 9.45703,-9.26172 -3.69585,3.25641 14.39625,-11.06716 10.37891,-8.21679 -4.01733,2.85036 15.478,-9.49484 11.18359,-7.08204 -4.2944,2.41281 16.38924,-7.81576 11.86524,-5.86718 -4.524,1.94857 17.1196,-6.05266 12.41602,-4.58985 -4.70359,1.46281 17.6593,-4.22258 12.82812,-3.26172 -4.83118,0.96087 18.00497,-2.34479 13.09961,-1.89648 -4.90536,0.44831 18.15383,-0.44056 13.22851,-0.50977 z m -42.25781,43.67774 c -0.29805,-0.13747 2.02446,3.74478 3.11328,5.3418 0.42796,1.31151 1.31672,3.61874 1.88086,4.8789 0.1898,1.3672 0.65943,3.79557 0.99219,5.13477 -0.0544,1.37898 -0.0206,3.84739 0.0703,5.22461 -0.29704,1.3472 -0.70181,3.78609 -0.85547,5.1582 -0.53052,1.27434 -1.36081,3.607 -1.7539,4.92969 -0.74807,1.16254 -1.97634,3.31026 -2.5957,4.54101 -0.9408,1.01148 -2.52375,2.90308 -3.35157,4.00586 -1.10278,0.82782 -2.99438,2.41076 -4.00586,3.35157 -1.23075,0.61936 -3.37847,1.84763 -4.54101,2.5957 -1.32269,0.39309 -3.65535,1.22338 -4.92969,1.7539 -1.37211,0.15366 -3.811,0.55843 -5.1582,0.85547 -1.37722,-0.0909 -3.84563,-0.12471 -5.22461,-0.0703 -1.3392,-0.33276 -3.76757,-0.80239 -5.13477,-0.99219 -1.26016,-0.56414 -3.56739,-1.4529 -4.8789,-1.88086 -1.9393,-1.32219 -7.31413,-4.49788 -4.61524,-2.51171 a 18.10512,18.10512 0 0 1 6.74024,19.32226 c -8.44405,31.10877 4.92073,66.89542 31.68945,84.85352 26.76871,17.95809 64.95102,16.75208 90.5332,-2.85938 25.58219,-19.61145 36.66367,-56.16965 26.27344,-86.68359 -10.37696,-30.47498 -41.39963,-52.65144 -73.58984,-52.63281 -6.90187,0.10393 -13.78846,1.13326 -20.41602,3.0625 a 18.10512,18.10512 0 0 1 -19.64062,-6.65235 c -0.35057,-0.47635 -0.53769,-0.6971 -0.60157,-0.72656 z" />
</svg>
