<?xml version="1.0" encoding="UTF-8" standalone="no"?>
<svg
   height="24px"
   viewBox="0 0 24 24"
   width="24px"
   fill="#FFFFFF"
   version="1.1"
   id="svg6"
   sodipodi:docname="settings_white_24dp.svg"
   inkscape:version="1.1.1 (26b7af14f2, 2022-01-19)"
   xmlns:inkscape="http://www.inkscape.org/namespaces/inkscape"
   xmlns:sodipodi="http://sodipodi.sourceforge.net/DTD/sodipodi-0.dtd"
   xmlns="http://www.w3.org/2000/svg"
   xmlns:svg="http://www.w3.org/2000/svg">
  <defs
     id="defs10" />
  <sodipodi:namedview
     id="namedview8"
     pagecolor="#505050"
     bordercolor="#eeeeee"
     borderopacity="1"
     inkscape:pageshadow="0"
     inkscape:pageopacity="0"
     inkscape:pagecheckerboard="0"
     showgrid="false"
     inkscape:zoom="20.75"
     inkscape:cx="17.108434"
     inkscape:cy="13.73494"
     inkscape:window-width="1850"
     inkscape:window-height="1016"
     inkscape:window-x="70"
     inkscape:window-y="27"
     inkscape:window-maximized="1"
     inkscape:current-layer="svg6" />
  <path
     d="M0 0h24v24H0V0z"
     fill="none"
     id="path2" />
  <path
     d="m 19.43,12.98 c 0.04,-0.32 0.07,-0.64 0.07,-0.98 0,-0.34 -0.03,-0.66 -0.07,-0.98 l 2.11,-1.65 c 0.19,-0.15 0.24,-0.42 0.12,-0.64 l -2,-3.46 C 19.57,5.11 19.4,5.02 19.22,5.02 c -0.06,0 -0.12,0.01 -0.17,0.03 l -2.49,1 C 16.04,5.65 15.48,5.32 14.87,5.07 L 14.49,2.42 C 14.46,2.18 14.25,2 14,2 H 10 C 9.75,2 9.54,2.18 9.51,2.42 L 9.13,5.07 C 8.52,5.32 7.96,5.66 7.44,6.05 l -2.49,-1 C 4.89,5.03 4.83,5.02 4.77,5.02 4.6,5.02 4.43,5.11 4.34,5.27 l -2,3.46 C 2.21,8.95 2.27,9.22 2.46,9.37 l 2.11,1.65 C 4.53,11.34 4.5,11.67 4.5,12 c 0,0.33 0.03,0.66 0.07,0.98 l -2.11,1.65 c -0.19,0.15 -0.24,0.42 -0.12,0.64 l 2,3.46 c 0.09,0.16 0.26,0.25 0.44,0.25 0.06,0 0.12,-0.01 0.17,-0.03 l 2.49,-1 c 0.52,0.4 1.08,0.73 1.69,0.98 l 0.38,2.65 C 9.54,21.82 9.75,22 10,22 h 4 c 0.25,0 0.46,-0.18 0.49,-0.42 l 0.38,-2.65 c 0.61,-0.25 1.17,-0.59 1.69,-0.98 l 2.49,1 c 0.06,0.02 0.12,0.03 0.18,0.03 0.17,0 0.34,-0.09 0.43,-0.25 l 2,-3.46 c 0.12,-0.22 0.07,-0.49 -0.12,-0.64 z M 16,12 C 5.3333333,4 10.666667,8 16,12 Z m -4,2 c -1.1,0 -2,-0.9 -2,-2 0,-1.1 0.9,-2 2,-2 1.1,0 2,0.9 2,2 0,1.1 -0.9,2 -2,2 z"
     id="path4"
     style="fill:#000000;fill-opacity:1"
     sodipodi:nodetypes="csccccsccccssccccsccccsccccsccccssccccsccccccsssss" />
  <path
     id="path4-3"
     style="fill:#ffffff;fill-opacity:1"
     sodipodi:type="inkscape:offset"
     inkscape:radius="-1.1603475"
     inkscape:original="M 10 2 C 9.75 2 9.5397656 2.1799219 9.5097656 2.4199219 L 9.1308594 5.0703125 C 8.5208594 5.3203125 7.9594531 5.6607812 7.4394531 6.0507812 L 4.9492188 5.0507812 C 4.8892187 5.0307813 4.8295313 5.0195312 4.7695312 5.0195312 C 4.5995313 5.0195312 4.4298437 5.1095313 4.3398438 5.2695312 L 2.3398438 8.7304688 C 2.2098438 8.9504687 2.2709375 9.2191406 2.4609375 9.3691406 L 4.5703125 11.019531 C 4.5303125 11.339531 4.5 11.67 4.5 12 C 4.5 12.33 4.5303125 12.660469 4.5703125 12.980469 L 2.4609375 14.630859 C 2.2709375 14.780859 2.2198438 15.049531 2.3398438 15.269531 L 4.3398438 18.730469 C 4.4298437 18.890469 4.5992969 18.980469 4.7792969 18.980469 C 4.8392969 18.980469 4.8992187 18.969219 4.9492188 18.949219 L 7.4394531 17.949219 C 7.9594531 18.349219 8.5208594 18.679687 9.1308594 18.929688 L 9.5097656 21.580078 C 9.5397656 21.820078 9.75 22 10 22 L 14 22 C 14.25 22 14.460234 21.820078 14.490234 21.580078 L 14.869141 18.929688 C 15.479141 18.679688 16.040547 18.339219 16.560547 17.949219 L 19.050781 18.949219 C 19.110781 18.969219 19.170469 18.980469 19.230469 18.980469 C 19.400469 18.980469 19.570156 18.890469 19.660156 18.730469 L 21.660156 15.269531 C 21.780156 15.049531 21.729063 14.780859 21.539062 14.630859 L 19.429688 12.980469 C 19.469687 12.660469 19.5 12.34 19.5 12 C 19.5 11.66 19.469687 11.339531 19.429688 11.019531 L 21.539062 9.3691406 C 21.729063 9.2191406 21.780156 8.9504687 21.660156 8.7304688 L 19.660156 5.2695312 C 19.570156 5.1095313 19.400703 5.0195312 19.220703 5.0195312 C 19.160703 5.0195312 19.100781 5.0307813 19.050781 5.0507812 L 16.560547 6.0507812 C 16.040547 5.6507813 15.479141 5.3203125 14.869141 5.0703125 L 14.490234 2.4199219 C 14.460234 2.1799219 14.25 2 14 2 L 10 2 z M 12 10 C 13.1 10 14 10.9 14 12 C 14 13.1 13.1 14 12 14 C 10.9 14 10 13.1 10 12 C 10 10.9 10.9 10 12 10 z "
     d="M 10.576172,3.1601562 10.279297,5.234375 A 1.1604635,1.1604635 0 0 1 9.5703125,6.1445312 C 9.0712117,6.3490807 8.5933862,6.6345502 8.1347656,6.9785156 A 1.1604635,1.1604635 0 0 1 7.0078125,7.1269531 L 5.0585938,6.34375 3.6328125,8.8125 5.2851562,10.105469 a 1.1604635,1.1604635 0 0 1 0.4375,1.058593 c -0.036754,0.29403 -0.0625,0.576995 -0.0625,0.835938 0,0.258943 0.025746,0.541908 0.0625,0.835938 a 1.1604635,1.1604635 0 0 1 -0.4375,1.058593 L 3.6328125,15.1875 5.0585938,17.65625 7.0078125,16.873047 a 1.1604635,1.1604635 0 0 1 1.1386719,0.15625 c 0.4448965,0.342228 0.9146789,0.617503 1.4238281,0.826172 a 1.1604635,1.1604635 0 0 1 0.7089845,0.910156 l 0.296875,2.074219 h 2.847656 l 0.296875,-2.074219 a 1.1604635,1.1604635 0 0 1 0.708985,-0.910156 c 0.4991,-0.20455 0.976925,-0.490019 1.435546,-0.833985 a 1.1604635,1.1604635 0 0 1 1.126954,-0.148437 l 1.949218,0.783203 1.425782,-2.46875 -1.652344,-1.292969 a 1.1604635,1.1604635 0 0 1 -0.4375,-1.058593 c 0.03712,-0.296985 0.0625,-0.564906 0.0625,-0.835938 0,-0.271032 -0.02538,-0.538953 -0.0625,-0.835938 a 1.1604635,1.1604635 0 0 1 0.4375,-1.058593 L 20.367188,8.8125 18.941406,6.34375 16.992188,7.1269531 a 1.1604635,1.1604635 0 0 1 -1.138672,-0.15625 C 15.408618,6.6284745 14.938835,6.3531981 14.429688,6.1445312 A 1.1604635,1.1604635 0 0 1 13.720703,5.234375 L 13.423828,3.1601562 Z m 8.90625,2.9667969 -0.0098,0.00391 c 0.0039,-0.00151 0.0057,-3.469e-4 0.0098,-0.00195 z M 12,8.8398438 c 1.732917,0 3.160156,1.4272392 3.160156,3.1601562 0,1.732917 -1.427239,3.160156 -3.160156,3.160156 C 10.267083,15.160156 8.8398437,13.732917 8.8398438,12 8.8398438,10.267083 10.267083,8.8398437 12,8.8398438 Z M 4.5273438,17.869141 c -0.00326,6.51e-4 -0.00977,0.0033 -0.00977,0.0039 0.00188,-7.54e-4 0.00839,-0.0034 0.00977,-0.0039 z" />
</svg>
