<?xml version="1.0" encoding="UTF-8" standalone="no"?>
<svg
   height="24px"
   viewBox="0 0 24 24"
   width="24px"
   fill="#FFFFFF"
   version="1.1"
   id="svg6"
   sodipodi:docname="wifi.svg"
   inkscape:version="1.1.2 (76b9e6a115, 2022-02-25)"
   xmlns:inkscape="http://www.inkscape.org/namespaces/inkscape"
   xmlns:sodipodi="http://sodipodi.sourceforge.net/DTD/sodipodi-0.dtd"
   xmlns="http://www.w3.org/2000/svg"
   xmlns:svg="http://www.w3.org/2000/svg">
  <defs
     id="defs10" />
  <sodipodi:namedview
     id="namedview8"
     pagecolor="#505050"
     bordercolor="#eeeeee"
     borderopacity="1"
     inkscape:pageshadow="0"
     inkscape:pageopacity="0"
     inkscape:pagecheckerboard="0"
     showgrid="false"
     inkscape:snap-page="true"
     inkscape:zoom="20.75"
     inkscape:cx="12"
     inkscape:cy="16"
     inkscape:window-width="1850"
     inkscape:window-height="1016"
     inkscape:window-x="70"
     inkscape:window-y="27"
     inkscape:window-maximized="1"
     inkscape:current-layer="svg6" />
  <path
     d="M0 0h24v24H0V0zm0 0h24v24H0V0z"
     fill="none"
     id="path2" />
  <path
     d="m 1,8.77625 2,2 c 4.97,-4.97 13.03,-4.97 18,0 l 2,-2 c -6.07,-6.07 -15.92,-6.07 -22,0 z m 8,8 3,3 3,-3 c -1.65,-1.66 -4.34,-1.66 -6,0 z m -4,-4 2,2 c 2.76,-2.76 7.24,-2.76 10,0 l 2,-2 c -3.86,-3.86 -10.13,-3.86 -14,0 z"
     id="path4" />
</svg>
