<?xml version="1.0" encoding="UTF-8" standalone="no"?>
<svg
   xmlns:dc="http://purl.org/dc/elements/1.1/"
   xmlns:cc="http://creativecommons.org/ns#"
   xmlns:rdf="http://www.w3.org/1999/02/22-rdf-syntax-ns#"
   xmlns:svg="http://www.w3.org/2000/svg"
   xmlns="http://www.w3.org/2000/svg"
   xmlns:sodipodi="http://sodipodi.sourceforge.net/DTD/sodipodi-0.dtd"
   xmlns:inkscape="http://www.inkscape.org/namespaces/inkscape"
   aria-hidden="true"
   focusable="false"
   data-prefix="fas"
   data-icon="times-circle"
   class="svg-inline--fa fa-times-circle fa-w-16"
   role="img"
   viewBox="0 0 512 512"
   version="1.1"
   id="svg4"
   sodipodi:docname="stage_dsr.svg"
   inkscape:version="1.0.1 (3bc2e813f5, 2020-09-07)">
  <metadata
     id="metadata10">
    <rdf:RDF>
      <cc:Work
         rdf:about="">
        <dc:format>image/svg+xml</dc:format>
        <dc:type
           rdf:resource="http://purl.org/dc/dcmitype/StillImage" />
      </cc:Work>
    </rdf:RDF>
  </metadata>
  <defs
     id="defs8">
    <rect
       x="52.270589"
       y="99.828665"
       width="531.56072"
       height="372.39535"
       id="rect10" />
  </defs>
  <sodipodi:namedview
     pagecolor="#ffffff"
     bordercolor="#666666"
     borderopacity="1"
     objecttolerance="10"
     gridtolerance="10"
     guidetolerance="10"
     inkscape:pageopacity="0"
     inkscape:pageshadow="2"
     inkscape:window-width="1366"
     inkscape:window-height="683"
     id="namedview6"
     showgrid="false"
     inkscape:snap-bbox="true"
     inkscape:bbox-paths="true"
     inkscape:bbox-nodes="true"
     inkscape:snap-bbox-edge-midpoints="true"
     inkscape:snap-bbox-midpoints="true"
     inkscape:snap-page="true"
     inkscape:zoom="0.46972657"
     inkscape:cx="163.51087"
     inkscape:cy="282.96731"
     inkscape:window-x="0"
     inkscape:window-y="0"
     inkscape:window-maximized="1"
     inkscape:current-layer="svg4"
     inkscape:document-rotation="0" />
  <circle
     style="color:#000000;overflow:visible;fill:#ffffff;fill-opacity:1;fill-rule:evenodd;stroke:none;stroke-width:3.64724;stroke-linecap:round;stroke-linejoin:round;stroke-opacity:1;paint-order:stroke fill markers"
     id="path835"
     cx="255.99998"
     cy="255.99998"
     r="255.99998" />
  <path
     id="rect8"
     style="color:#000000;overflow:visible;fill:#f44336;fill-opacity:1;fill-rule:evenodd;stroke-width:3.64724;stroke-linecap:round;stroke-linejoin:round;paint-order:stroke fill markers"
     d="M 256,49.005859 C 141.6519,49.005859 49.005859,141.6519 49.005859,256 49.005859,370.34809 141.6519,462.99414 256,462.99414 370.34809,462.99414 462.99414,370.34809 462.99414,256 462.99414,141.6519 370.34809,49.005859 256,49.005859 Z"
     sodipodi:nodetypes="sssss" />
  <g
     aria-label="DSR"
     transform="matrix(4.330204,0,0,4.504074,-129.51502,-294.43244)"
     id="text8"
     style="font-style:normal;font-weight:normal;font-size:40px;line-height:125%;font-family:sans-serif;letter-spacing:0px;word-spacing:0px;white-space:pre;shape-inside:url(#rect10);fill:#ffffff;fill-opacity:1;stroke:#ffffff;stroke-width:4.07583;stroke-linecap:butt;stroke-linejoin:round;stroke-miterlimit:4;stroke-dasharray:none;stroke-opacity:1">
    <path
       d="M 54.908203,136.49479 V 107.9401 h 6.679688 q 6.191406,0 9.628906,3.69141 3.457031,3.69141 3.457031,10.3125 0,7.05078 -3.574219,10.80078 -3.574218,3.75 -10.3125,3.75 z m 3.652344,-25.44922 v 22.32422 h 1.875 q 10.390625,0 10.390625,-11.30859 0,-11.01563 -9.628906,-11.01563 z"
       style="font-style:normal;font-variant:normal;font-weight:normal;font-stretch:normal;font-family:'Noto Mono';-inkscape-font-specification:'Noto Mono';fill:#ffffff;fill-opacity:1;stroke:#ffffff;stroke-width:4.07583;stroke-linejoin:round;stroke-miterlimit:4;stroke-dasharray:none;stroke-opacity:1"
       id="path837" />
    <path
       d="m 79.029297,135.53776 v -3.47656 q 4.121094,1.67969 8.085937,1.67969 6.835938,0 6.835938,-4.6875 0,-2.03125 -1.386719,-3.125 -1.367187,-1.09375 -5.566406,-2.59766 -4.0625,-1.42578 -5.839844,-3.39844 -1.757812,-1.99219 -1.757812,-5.15625 0,-3.39844 2.5,-5.3125 2.519531,-1.93359 6.894531,-1.93359 4.472656,0 8.125,1.52344 l -1.25,3.20312 q -3.769531,-1.52344 -7.03125,-1.52344 -5.722656,0 -5.722656,4.08203 0,1.99219 1.269531,3.20313 1.289062,1.21094 5.292969,2.59766 4.804687,1.71875 6.40625,3.55468 1.621093,1.81641 1.621093,4.6875 0,3.75 -2.714843,5.89844 -2.695313,2.12891 -7.675782,2.12891 -5.175781,0 -8.085937,-1.34766 z"
       style="font-style:normal;font-variant:normal;font-weight:normal;font-stretch:normal;font-family:'Noto Mono';-inkscape-font-specification:'Noto Mono';fill:#ffffff;fill-opacity:1;stroke:#ffffff;stroke-width:4.07583;stroke-linejoin:round;stroke-miterlimit:4;stroke-dasharray:none;stroke-opacity:1"
       id="path839" />
    <path
       d="m 107.56445,124.69792 v 11.79687 h -3.65234 V 107.9401 h 6.97266 q 10.15625,0 10.15625,8.10547 0,5.60547 -5.64454,7.65625 l 7.75391,12.79297 h -4.27734 l -6.83594,-11.79687 z m 0,-3.08594 h 3.20313 q 3.33984,0 4.92187,-1.28906 1.58203,-1.28907 1.58203,-4.10157 0,-2.7539 -1.5625,-3.96484 -1.5625,-1.21094 -5.03906,-1.21094 h -3.10547 z"
       style="font-style:normal;font-variant:normal;font-weight:normal;font-stretch:normal;font-family:'Noto Mono';-inkscape-font-specification:'Noto Mono';fill:#ffffff;fill-opacity:1;stroke:#ffffff;stroke-width:4.07583;stroke-linejoin:round;stroke-miterlimit:4;stroke-dasharray:none;stroke-opacity:1"
       id="path841" />
  </g>
</svg>
