<?xml version="1.0" encoding="UTF-8" standalone="no"?>
<svg
   aria-hidden="true"
   focusable="false"
   data-prefix="fas"
   data-icon="times-circle"
   class="svg-inline--fa fa-times-circle fa-w-16"
   role="img"
   viewBox="0 0 512 512"
   version="1.1"
   id="svg4"
   sodipodi:docname="questionmark.svg"
   inkscape:version="1.3-beta (12614ed929, 2023-05-28)"
   xmlns:inkscape="http://www.inkscape.org/namespaces/inkscape"
   xmlns:sodipodi="http://sodipodi.sourceforge.net/DTD/sodipodi-0.dtd"
   xmlns="http://www.w3.org/2000/svg"
   xmlns:svg="http://www.w3.org/2000/svg"
   xmlns:rdf="http://www.w3.org/1999/02/22-rdf-syntax-ns#"
   xmlns:cc="http://creativecommons.org/ns#"
   xmlns:dc="http://purl.org/dc/elements/1.1/">
  <metadata
     id="metadata10">
    <rdf:RDF>
      <cc:Work
         rdf:about="">
        <dc:format>image/svg+xml</dc:format>
        <dc:type
           rdf:resource="http://purl.org/dc/dcmitype/StillImage" />
      </cc:Work>
    </rdf:RDF>
  </metadata>
  <defs
     id="defs8">
    <rect
       x="0"
       y="0"
       width="512"
       height="512"
       id="rect1" />
  </defs>
  <sodipodi:namedview
     pagecolor="#ffffff"
     bordercolor="#666666"
     borderopacity="1"
     objecttolerance="10"
     gridtolerance="10"
     guidetolerance="10"
     inkscape:pageopacity="0"
     inkscape:pageshadow="2"
     inkscape:window-width="1850"
     inkscape:window-height="1016"
     id="namedview6"
     showgrid="false"
     inkscape:snap-bbox="true"
     inkscape:bbox-paths="true"
     inkscape:bbox-nodes="true"
     inkscape:snap-bbox-edge-midpoints="true"
     inkscape:snap-bbox-midpoints="true"
     inkscape:snap-page="true"
     inkscape:zoom="1"
     inkscape:cx="168"
     inkscape:cy="279"
     inkscape:window-x="70"
     inkscape:window-y="27"
     inkscape:window-maximized="1"
     inkscape:current-layer="svg4"
     inkscape:document-rotation="0"
     inkscape:pagecheckerboard="0"
     inkscape:showpageshadow="2"
     inkscape:deskcolor="#d1d1d1" />
  <circle
     style="color:#000000;overflow:visible;fill:none;fill-opacity:1;fill-rule:evenodd;stroke:none;stroke-width:3.64724;stroke-linecap:round;stroke-linejoin:round;stroke-opacity:1;paint-order:stroke fill markers"
     id="path835"
     cx="255.99998"
     cy="255.99998"
     r="255.99998" />
  <g
     id="text1"
     transform="matrix(18.799521,0,0,17.211848,-4552.5651,-53.592239)">
    <path
       style="color:#000000;-inkscape-font-specification:'Roboto Bold';fill:#000000;stroke-linecap:round;-inkscape-stroke:none;paint-order:stroke fill markers"
       d="m 255.84375,4.9726562 c -2.22055,0 -4.23108,0.6020153 -5.85352,1.828125 l -0.002,0.00195 h -0.002 c -1.72329,1.3123664 -2.59156,3.4298816 -2.62696,5.8828126 l -0.0195,1.410156 h 7.30078 l 0.0293,-1.359375 c 0.0152,-0.684891 0.16212,-0.871884 0.29297,-0.976562 0.30202,-0.241615 0.53391,-0.320313 0.88086,-0.320313 0.56837,0 0.72787,0.115182 0.82227,0.216797 0.0944,0.101615 0.24023,0.368181 0.24023,1.033203 0,0.398882 -0.0892,0.684981 -0.30273,0.996094 -0.24634,0.358938 -0.81372,0.977047 -1.66407,1.728516 -1.02038,0.901733 -1.7949,1.91305 -2.24609,3.041015 v 0.0039 l -0.002,0.0039 c -0.43606,1.109902 -0.61771,2.414573 -0.62891,3.951171 l -0.01,1.400391 h 1.78711 c -0.41527,0.179322 -0.81322,0.399166 -1.13476,0.720703 l -0.006,0.0059 -0.006,0.0059 c -0.68702,0.702994 -1.06836,1.690275 -1.06836,2.673828 0,0.983553 0.38134,1.972787 1.06836,2.675781 l 0.006,0.0059 0.006,0.0059 c 0.73379,0.733797 1.77988,1.09375 2.82617,1.09375 1.04629,0 2.09238,-0.359953 2.82617,-1.09375 0.7003,-0.700294 1.0957,-1.696822 1.0957,-2.6875 0,-0.990678 -0.3954,-1.985252 -1.0957,-2.685547 -0.32154,-0.321537 -0.71949,-0.541381 -1.13476,-0.720703 h 1.58398 l 0.0352,-1.353516 c 0.0179,-0.678853 0.11738,-1.221247 0.26367,-1.630859 0.11421,-0.31979 0.35232,-0.683993 0.80469,-1.087891 l 0.0137,-0.01172 0.0117,-0.01172 c 1.05466,-0.990096 1.98295,-1.959966 2.78515,-2.916016 0.98947,-1.176663 1.48243,-2.690132 1.48242,-4.316406 0,-2.255936 -0.77447,-4.2514648 -2.32617,-5.5820311 l -0.002,-0.00195 c -1.53756,-1.3280366 -3.61978,-1.9296874 -6.03125,-1.9296875 z m 0,2.7792969 c 1.96248,0 3.29621,0.460102 4.2168,1.2558594 l 0.002,0.00195 0.002,0.00195 c 0.90382,0.7736017 1.35743,1.7950962 1.35742,3.4746092 0,1.10289 -0.27787,1.870676 -0.83007,2.527344 v 0.002 c -0.71864,0.856448 -1.5716,1.751165 -2.5586,2.677734 l 0.0254,-0.02344 c -0.7143,0.637768 -1.26785,1.377733 -1.57031,2.224609 -0.12364,0.346194 -0.12515,0.763358 -0.19336,1.140625 h -1.24609 c 0.0763,-0.52647 0.0951,-1.210817 0.22656,-1.546875 2.8e-4,-7.05e-4 0.002,-0.0012 0.002,-0.002 0.25735,-0.642212 0.73152,-1.307431 1.50196,-1.988281 0.94132,-0.831864 1.63434,-1.536674 2.11718,-2.240234 0.51566,-0.751386 0.79102,-1.654743 0.79102,-2.56836 0,-1.095393 -0.26302,-2.147189 -0.98633,-2.9257811 -0.7233,-0.7785924 -1.79038,-1.1035157 -2.85742,-1.1035156 -0.94471,0 -1.87949,0.3379694 -2.61914,0.9296875 -0.55026,0.4402072 -0.86173,1.0579772 -1.06836,1.7265622 h -1.76563 c 0.22702,-0.988027 0.59899,-1.7826916 1.2793,-2.300781 1.10605,-0.8346565 2.43788,-1.2636719 4.17383,-1.2636719 z m -0.3125,18.4687499 c 0.49538,0 0.67846,0.09838 0.86133,0.28125 0.21637,0.216371 0.27929,0.355263 0.27929,0.71875 0,0.363487 -0.0629,0.504332 -0.27929,0.720703 -0.18287,0.182869 -0.36595,0.28125 -0.86133,0.28125 -0.49099,0 -0.67225,-0.09955 -0.85352,-0.279297 -0.20227,-0.209096 -0.27148,-0.357024 -0.27148,-0.722656 0,-0.36562 0.0692,-0.511617 0.27148,-0.720703 0.18127,-0.179748 0.36253,-0.279297 0.85352,-0.279297 z"
       id="path1" />
    <path
       style="color:#000000;-inkscape-font-specification:'Roboto Bold';fill:#ffffff;stroke-linecap:round;-inkscape-stroke:none;paint-order:stroke fill markers"
       d="m 257.45312,22.424658 h -4 q 0.0156,-2.140625 0.53125,-3.453125 0.53125,-1.328125 1.875,-2.515625 1.34375,-1.1875 1.89063,-1.984375 0.54687,-0.796875 0.54687,-1.78125 0,-2.640625 -2.45312,-2.640625 -0.96875,0 -1.75,0.625 -0.78125,0.625 -0.8125,2.03125 H 248.75 q 0.0469,-3.2500005 2.07812,-4.7968755 2.04688,-1.546875 5.01563,-1.546875 3.28125,0 5.125,1.59375 1.84375,1.578125 1.84375,4.5312505 0,2.046875 -1.15625,3.421875 -1.14063,1.359375 -2.67188,2.796875 -0.875,0.78125 -1.1875,1.65625 -0.3125,0.875 -0.34375,2.0625 z m -4.4375,4.796875 q 0,-1.015625 0.67188,-1.703125 0.6875,-0.6875 1.84375,-0.6875 1.15625,0 1.84375,0.6875 0.6875,0.6875 0.6875,1.703125 0,1.015625 -0.6875,1.703125 -0.6875,0.6875 -1.84375,0.6875 -1.15625,0 -1.84375,-0.6875 -0.67188,-0.6875 -0.67188,-1.703125 z"
       id="path2" />
  </g>
</svg>
