<?xml version="1.0" encoding="UTF-8" standalone="no"?>
<svg
   height="24px"
   viewBox="0 0 24 24"
   width="24px"
   fill="#FFFFFF"
   version="1.1"
   id="svg965"
   sodipodi:docname="arrow_up.svg"
   inkscape:version="1.1.2 (76b9e6a115, 2022-02-25)"
   xmlns:inkscape="http://www.inkscape.org/namespaces/inkscape"
   xmlns:sodipodi="http://sodipodi.sourceforge.net/DTD/sodipodi-0.dtd"
   xmlns="http://www.w3.org/2000/svg"
   xmlns:svg="http://www.w3.org/2000/svg">
  <defs
     id="defs969" />
  <sodipodi:namedview
     id="namedview967"
     pagecolor="#505050"
     bordercolor="#eeeeee"
     borderopacity="1"
     inkscape:pageshadow="0"
     inkscape:pageopacity="0"
     inkscape:pagecheckerboard="0"
     showgrid="false"
     inkscape:zoom="20.75"
     inkscape:cx="12"
     inkscape:cy="12"
     inkscape:window-width="1850"
     inkscape:window-height="1016"
     inkscape:window-x="70"
     inkscape:window-y="27"
     inkscape:window-maximized="1"
     inkscape:current-layer="path963" />
  <path
     d="M0 0h24v24H0V0z"
     fill="none"
     id="path961" />
  <g
     id="path963">
    <path
       style="color:#000000;fill:#000000;-inkscape-stroke:none;paint-order:stroke fill markers"
       d="m 12.005859,3.4257813 c -0.513365,-1e-7 -1.026734,0.1907973 -1.412109,0.5761718 L 3.9941406,10.582031 h -0.00195 c -0.770749,0.770749 -0.770749,2.05347 0,2.824219 0.770749,0.770749 2.0534697,0.770749 2.8242187,0 v 0.002 L 10,10.238281 V 19 c 0,1.095453 0.904547,2 2,2 1.095453,0 2,-0.904547 2,-2 v -8.755859 l 3.173828,3.173828 c 0.776793,0.776792 2.057192,0.776792 2.833984,0 0.77075,-0.770749 0.77075,-2.05347 0,-2.824219 L 13.417969,4.0019531 C 13.032594,3.6165786 12.519225,3.4257813 12.005859,3.4257813 Z"
       id="path1010" />
    <path
       style="color:#000000;fill:#ffffff;stroke-width:2;-inkscape-stroke:none;paint-order:stroke fill markers"
       d="M 13,19 V 7.83 l 4.88,4.88 c 0.39,0.39 1.03,0.39 1.42,0 0.39,-0.39 0.39,-1.02 0,-1.41 L 12.71,4.71 c -0.39,-0.39 -1.02,-0.39 -1.41,0 l -6.6,6.58 c -0.39,0.39 -0.39,1.02 0,1.41 0.39,0.39 1.02,0.39 1.41,0 L 11,7.83 V 19 c 0,0.55 0.45,1 1,1 0.55,0 1,-0.45 1,-1 z"
       id="path1012" />
  </g>
</svg>
