<?xml version="1.0" encoding="UTF-8" standalone="no"?>
<svg
   aria-hidden="true"
   focusable="false"
   data-prefix="fas"
   data-icon="times-circle"
   class="svg-inline--fa fa-times-circle fa-w-16"
   role="img"
   viewBox="0 0 512 512"
   version="1.1"
   id="svg4"
   sodipodi:docname="cancel.svg"
   inkscape:version="1.1.2 (76b9e6a115, 2022-02-25)"
   xmlns:inkscape="http://www.inkscape.org/namespaces/inkscape"
   xmlns:sodipodi="http://sodipodi.sourceforge.net/DTD/sodipodi-0.dtd"
   xmlns="http://www.w3.org/2000/svg"
   xmlns:svg="http://www.w3.org/2000/svg">
  <defs
     id="defs8" />
  <sodipodi:namedview
     id="namedview6"
     pagecolor="#505050"
     bordercolor="#eeeeee"
     borderopacity="1"
     inkscape:pageshadow="0"
     inkscape:pageopacity="0"
     inkscape:pagecheckerboard="0"
     showgrid="false"
     inkscape:snap-global="false"
     inkscape:zoom="0.97265625"
     inkscape:cx="256"
     inkscape:cy="256"
     inkscape:window-width="1850"
     inkscape:window-height="1016"
     inkscape:window-x="70"
     inkscape:window-y="27"
     inkscape:window-maximized="1"
     inkscape:current-layer="svg4" />
  <path
     fill="currentColor"
     d="M256 8C119 8 8 119 8 256s111 248 248 248 248-111 248-248S393 8 256 8zm121.6 313.1c4.7 4.7 4.7 12.3 0 17L338 377.6c-4.7 4.7-12.3 4.7-17 0L256 312l-65.1 65.6c-4.7 4.7-12.3 4.7-17 0L134.4 338c-4.7-4.7-4.7-12.3 0-17l65.6-65-65.6-65.1c-4.7-4.7-4.7-12.3 0-17l39.6-39.6c4.7-4.7 12.3-4.7 17 0l65 65.7 65.1-65.6c4.7-4.7 12.3-4.7 17 0l39.6 39.6c4.7 4.7 4.7 12.3 0 17L312 256l65.6 65.1z"
     id="path2" />
  <path
     id="path2-3"
     style="fill:#ffffff;fill-opacity:1"
     sodipodi:type="inkscape:offset"
     inkscape:radius="-26.871944"
     inkscape:original="M 256 8 C 119 8 8 119 8 256 C 8 393 119 504 256 504 C 393 504 504 393 504 256 C 504 119 393 8 256 8 z M 182.5 130.77539 C 185.575 130.77539 188.65 131.95078 191 134.30078 L 256 200 L 321.09961 134.40039 C 325.79961 129.70039 333.39961 129.70039 338.09961 134.40039 L 377.69922 174 C 382.39922 178.7 382.39922 186.3 377.69922 191 L 312 256 L 377.59961 321.09961 C 382.29961 325.79961 382.29961 333.39961 377.59961 338.09961 L 338 377.59961 C 333.3 382.29961 325.7 382.29961 321 377.59961 L 256 312 L 190.90039 377.59961 C 186.20039 382.29961 178.60039 382.29961 173.90039 377.59961 L 134.40039 338 C 129.70039 333.3 129.70039 325.7 134.40039 321 L 200 256 L 134.40039 190.90039 C 129.70039 186.20039 129.70039 178.60039 134.40039 173.90039 L 174 134.30078 C 176.35 131.95078 179.425 130.77539 182.5 130.77539 z "
     d="M 256,34.871094 C 133.51477,34.871094 34.871094,133.51477 34.871094,256 34.871094,378.48523 133.51477,477.12891 256,477.12891 378.48523,477.12891 477.12891,378.48523 477.12891,256 477.12891,133.51477 378.48523,34.871094 256,34.871094 Z M 182.5,103.9043 c 9.9227,0 20.03208,3.92465 27.50195,11.39453 a 26.874632,26.874632 0 0 1 0.10157,0.10351 l 45.92578,46.41993 45.99609,-46.34961 a 26.874632,26.874632 0 0 1 0.0723,-0.0742 c 14.94185,-14.94186 40.06205,-14.94186 55.0039,0 l 39.59961,39.59961 c 14.94186,14.94185 14.94186,40.06205 0,55.0039 a 26.874632,26.874632 0 0 1 -0.10351,0.10157 l -46.41993,45.92578 46.34961,45.99609 a 26.874632,26.874632 0 0 1 0.0742,0.0723 c 14.94186,14.94185 14.94186,40.06205 0,55.0039 a 26.874632,26.874632 0 0 1 -0.0254,0.0234 l -39.58398,39.48438 c -14.94294,14.93284 -40.05529,14.93103 -54.99414,-0.008 a 26.874632,26.874632 0 0 1 -0.0859,-0.0879 l -45.92773,-46.34961 -46.00977,46.36328 a 26.874632,26.874632 0 0 1 -0.0723,0.0742 c -14.94185,14.94186 -40.06205,14.94186 -55.0039,0 a 26.874632,26.874632 0 0 1 -0.0234,-0.0254 l -39.47656,-39.57422 -0.008,-0.01 c -14.93284,-14.94294 -14.93103,-40.05529 0.008,-54.99414 a 26.874632,26.874632 0 0 1 0.0879,-0.0859 l 46.34961,-45.92773 -46.36328,-46.00977 a 26.874632,26.874632 0 0 1 -0.0742,-0.0723 c -14.94186,-14.94185 -14.94186,-40.06205 0,-55.0039 l 39.59961,-39.59961 C 162.46792,107.82895 172.5773,103.9043 182.5,103.9043 Z" />
</svg>
