<?xml version="1.0" encoding="UTF-8" standalone="no"?>
<svg
   aria-hidden="true"
   focusable="false"
   data-prefix="fas"
   data-icon="eye"
   class="svg-inline--fa fa-eye fa-w-18"
   role="img"
   viewBox="0 0 576 512"
   version="1.1"
   id="svg4"
   sodipodi:docname="eye.svg"
   inkscape:version="1.1.2 (76b9e6a115, 2022-02-25)"
   xmlns:inkscape="http://www.inkscape.org/namespaces/inkscape"
   xmlns:sodipodi="http://sodipodi.sourceforge.net/DTD/sodipodi-0.dtd"
   xmlns="http://www.w3.org/2000/svg"
   xmlns:svg="http://www.w3.org/2000/svg">
  <defs
     id="defs8" />
  <sodipodi:namedview
     id="namedview6"
     pagecolor="#505050"
     bordercolor="#eeeeee"
     borderopacity="1"
     inkscape:pageshadow="0"
     inkscape:pageopacity="0"
     inkscape:pagecheckerboard="0"
     showgrid="false"
     inkscape:zoom="0.97265625"
     inkscape:cx="287.87149"
     inkscape:cy="256"
     inkscape:window-width="1850"
     inkscape:window-height="1016"
     inkscape:window-x="70"
     inkscape:window-y="27"
     inkscape:window-maximized="1"
     inkscape:current-layer="svg4" />
  <g
     id="path2">
    <path
       style="color:#000000;fill:#ffffff;stroke-width:20;-inkscape-stroke:none"
       d="M 538.58944,243.14113 C 490.82666,149.94955 396.26993,86.897048 288,86.897048 c -108.26993,0 -202.853083,63.096542 -250.589437,156.252892 a 28.492086,28.492086 0 0 0 0,25.70893 C 85.17334,362.05045 179.73007,425.10295 288,425.10295 c 108.26993,0 202.85308,-63.09654 250.58944,-156.25289 a 28.492086,28.492086 0 0 0 0,-25.70893 z M 288,382.82721 A 126.82721,126.82721 0 1 1 414.82721,256 126.76556,126.76556 0 0 1 288,382.82721 Z m 0,-211.37869 a 83.943762,83.943762 0 0 0 -22.29164,3.33803 42.143626,42.143626 0 0 1 -58.92181,58.92181 A 84.357712,84.357712 0 1 0 288,171.44852 Z"
       id="path1205" />
    <path
       style="color:#000000;fill:#000000;-inkscape-stroke:none"
       d="m 288,76.896484 c -112.15496,0 -210.142876,65.396986 -259.488281,161.693356 l -0.01367,0.0234 -0.01172,0.0254 c -5.515945,10.91116 -5.515945,23.82126 0,34.73242 l 0.01172,0.0234 0.01367,0.0254 C 77.882799,369.74952 175.84776,435.10352 288,435.10352 c 112.15496,0 210.14287,-65.39699 259.48828,-161.69336 l 0.0137,-0.0234 0.0117,-0.0254 c 5.51595,-10.91116 5.51595,-23.82126 0,-34.73242 l -0.0117,-0.0234 -0.0137,-0.0254 C 498.1172,142.25048 400.15224,76.896484 288,76.896484 Z m 0,20 c 104.37352,0 195.50972,60.737866 241.66992,150.771486 2.64683,5.24756 2.64676,11.41325 -0.002,16.66015 C 483.53428,354.32238 392.3693,415.10352 288,415.10352 c -104.37352,0 -195.509719,-60.73787 -241.669922,-150.77149 -2.646832,-5.24756 -2.646759,-11.41325 0.002,-16.66016 C 92.465718,157.67762 183.6307,96.896484 288,96.896484 Z m 3.01172,22.316406 c -36.62983,-0.79021 -72.8687,13.15191 -99.75781,40.04102 -39.11144,39.11143 -50.83017,98.00595 -29.66407,149.10742 21.16614,51.10155 71.09752,84.46679 126.41016,84.46679 75.46415,0.0346 136.86376,-61.36568 136.82812,-136.83007 -7.8e-4,-55.31186 -33.36584,-105.24232 -84.46679,-126.40821 -15.96921,-6.6144 -32.69969,-10.01776 -49.34961,-10.37695 z m -0.45313,19.97656 c 14.21286,0.31087 28.50021,3.22308 42.15039,8.87696 43.68071,18.09244 72.11914,60.6528 72.11914,107.93359 v 0.002 0.002 c 0.0315,64.65094 -52.17327,116.85566 -116.82421,116.82421 h -0.002 H 288 c -47.28079,10e-6 -89.84115,-28.43843 -107.93359,-72.11914 -18.0924,-43.6806 -8.10464,-93.88169 25.32812,-127.31445 22.98502,-22.98502 53.89579,-34.88898 85.16406,-34.20508 z m -2.69922,22.25977 c -8.44582,0.11804 -16.83731,1.37524 -24.94726,3.73633 l -13.74024,4 8.48243,11.52734 c 9.45759,12.8525 8.12329,30.4978 -3.16016,41.78125 -11.28345,11.28345 -28.92875,12.61775 -41.78125,3.16016 l -11.75391,-8.65039 -3.82421,14.08398 c -10.59185,39.02242 4.91823,80.55149 38.49609,103.07617 33.57775,22.52461 77.88198,21.11939 109.9707,-3.48047 32.08873,-24.59985 44.95043,-67.01989 31.91797,-105.29492 -13.0325,-38.27516 -49.10873,-64.03463 -89.54297,-63.93945 h -0.0586 z m 0.2129,20.0039 c 31.91088,-0.0541 60.22744,20.1732 70.51367,50.38282 10.29151,30.22514 0.18953,63.54898 -25.15235,82.97656 -25.34187,19.42758 -60.14438,20.52948 -86.66015,2.74219 -22.99576,-15.426 -35.16046,-42.01355 -32.54297,-68.90039 18.56328,6.62209 39.88549,2.49927 54.4043,-12.01953 14.56293,-14.56294 18.66398,-35.96979 11.95507,-54.57227 2.48555,-0.29093 4.9749,-0.572 7.48243,-0.60938 z"
       id="path1207" />
  </g>
</svg>
