<?xml version="1.0" encoding="UTF-8" standalone="no"?>
<svg
   height="24px"
   viewBox="0 0 24 24"
   width="24px"
   fill="#000000"
   version="1.1"
   id="svg6"
   sodipodi:docname="info.svg"
   inkscape:version="1.1.2 (76b9e6a115, 2022-02-25)"
   xmlns:inkscape="http://www.inkscape.org/namespaces/inkscape"
   xmlns:sodipodi="http://sodipodi.sourceforge.net/DTD/sodipodi-0.dtd"
   xmlns="http://www.w3.org/2000/svg"
   xmlns:svg="http://www.w3.org/2000/svg">
  <defs
     id="defs10" />
  <sodipodi:namedview
     id="namedview8"
     pagecolor="#505050"
     bordercolor="#eeeeee"
     borderopacity="1"
     inkscape:pageshadow="0"
     inkscape:pageopacity="0"
     inkscape:pagecheckerboard="0"
     showgrid="false"
     inkscape:zoom="20.75"
     inkscape:cx="12"
     inkscape:cy="12"
     inkscape:window-width="1850"
     inkscape:window-height="1016"
     inkscape:window-x="70"
     inkscape:window-y="27"
     inkscape:window-maximized="1"
     inkscape:current-layer="svg6" />
  <path
     d="M0 0h24v24H0V0z"
     fill="none"
     id="path2" />
  <g
     id="path4">
    <path
       style="color:#000000;fill:#ffffff;stroke-width:1.56117;-inkscape-stroke:none"
       d="M 12,1.5921791 C 6.2548829,1.5921791 1.5921791,6.2548829 1.5921791,12 1.5921791,17.745117 6.2548829,22.407821 12,22.407821 17.745117,22.407821 22.407821,17.745117 22.407821,12 22.407821,6.2548829 17.745117,1.5921791 12,1.5921791 Z m 0,17.0479959 c -0.730419,0 -1.328035,-0.597616 -1.328035,-1.328035 V 12 c 0,-0.730419 0.597616,-1.328035 1.328035,-1.328035 0.730419,0 1.328035,0.597616 1.328035,1.328035 v 5.31214 c 0,0.730419 -0.597616,1.328035 -1.328035,1.328035 z M 13.221669,7.9095293 c -0.5759,0.5759004 -1.867438,0.5759004 -2.443338,0 -0.5759,-0.5759005 -0.5759,-1.8674381 0,-2.4433385 0.5759,-0.5759004 1.867438,-0.5759004 2.443338,0 0.5759,0.5759004 0.5759,1.867438 0,2.4433385 z"
       id="path824" />
    <path
       style="color:#000000;fill:#000000;-inkscape-stroke:none"
       d="M 12,0.8125 C 5.8325436,0.8125 0.8125,5.8325436 0.8125,12 0.8125,18.167456 5.8325435,23.1875 12,23.1875 18.167456,23.1875 23.1875,18.167456 23.1875,12 23.1875,5.8325435 18.167456,0.8125 12,0.8125 Z m 0,1.5605469 c 5.322766,0 9.626953,4.3041868 9.626953,9.6269531 0,5.322766 -4.304187,9.626953 -9.626953,9.626953 C 6.6772337,21.626953 2.3730469,17.322766 2.3730469,12 2.3730469,6.6772337 6.6772337,2.3730469 12,2.3730469 Z m 0,1.8808593 c -0.627342,0 -1.279181,0.1658995 -1.773437,0.6601563 C 9.7323062,5.4083191 9.5664063,6.0601578 9.5664063,6.6875 c 0,0.6273422 0.1659,1.2791809 0.6601567,1.7734375 0.494256,0.4942568 1.146095,0.6601563 1.773437,0.6601563 0.627342,0 1.279181,-0.1658995 1.773438,-0.6601563 0.494256,-0.4942566 0.660156,-1.1460953 0.660156,-1.7734375 0,-0.6273422 -0.1659,-1.2791809 -0.660156,-1.7734375 C 13.279181,4.4198057 12.627342,4.2539062 12,4.2539062 Z m 0,1.5605469 c 0.306376,0 0.588279,0.121482 0.669922,0.203125 0.08164,0.081643 0.203125,0.363546 0.203125,0.6699219 0,0.3063759 -0.121482,0.5882786 -0.203125,0.6699219 -0.08164,0.081643 -0.363546,0.203125 -0.669922,0.203125 -0.306376,0 -0.588279,-0.121482 -0.669922,-0.203125 -0.08164,-0.081643 -0.203125,-0.363546 -0.203125,-0.6699219 0,-0.3063759 0.121482,-0.5882787 0.203125,-0.6699219 C 11.411721,5.9359351 11.693624,5.8144531 12,5.8144531 Z m 0,4.0761719 c -1.156192,0 -2.109375,0.953183 -2.109375,2.109375 v 5.3125 c 0,1.156192 0.953183,2.107422 2.109375,2.107422 1.156192,0 2.109375,-0.95123 2.109375,-2.107422 V 12 C 14.109375,10.843808 13.156192,9.890625 12,9.890625 Z m 0,1.5625 c 0.304645,0 0.546875,0.24223 0.546875,0.546875 v 5.3125 c 0,0.304645 -0.24223,0.546875 -0.546875,0.546875 -0.304645,0 -0.546875,-0.24223 -0.546875,-0.546875 V 12 c 0,-0.304645 0.24223,-0.546875 0.546875,-0.546875 z"
       id="path826" />
  </g>
</svg>
