<?xml version="1.0" encoding="UTF-8" standalone="no"?>
<svg
   height="48"
   width="48"
   version="1.1"
   id="svg271"
   sodipodi:docname="check_FILL0_wght400_GRAD0_opsz48.svg"
   inkscape:version="1.2 (56b05e47e7, 2022-06-09, custom)"
   xmlns:inkscape="http://www.inkscape.org/namespaces/inkscape"
   xmlns:sodipodi="http://sodipodi.sourceforge.net/DTD/sodipodi-0.dtd"
   xmlns="http://www.w3.org/2000/svg"
   xmlns:svg="http://www.w3.org/2000/svg">
  <defs
     id="defs275" />
  <sodipodi:namedview
     id="namedview273"
     pagecolor="#505050"
     bordercolor="#eeeeee"
     borderopacity="1"
     inkscape:showpageshadow="0"
     inkscape:pageopacity="0"
     inkscape:pagecheckerboard="0"
     inkscape:deskcolor="#505050"
     showgrid="false"
     inkscape:zoom="6.9532167"
     inkscape:cx="17.905382"
     inkscape:cy="25.81539"
     inkscape:window-width="1846"
     inkscape:window-height="1016"
     inkscape:window-x="74"
     inkscape:window-y="27"
     inkscape:window-maximized="1"
     inkscape:current-layer="svg271" />
  <path
     id="path269-7"
     sodipodi:type="inkscape:offset"
     inkscape:radius="4.8883681"
     inkscape:original="M 38.099609 12.199219 L 18.900391 31.400391 L 9.8496094 22.349609 L 7.6992188 24.5 L 18.900391 35.699219 L 40.25 14.349609 L 38.099609 12.199219 z "
     d="m 38.099609,7.3105469 a 4.888857,4.888857 0 0 0 -3.457031,1.4316406 l -15.742187,15.7441405 -5.59375,-5.59375 a 4.888857,4.888857 0 0 0 -6.9140629,0 l -2.1503906,2.150391 a 4.888857,4.888857 0 0 0 0,6.914062 L 15.443359,39.15625 a 4.888857,4.888857 0 0 0 6.914063,0 L 43.707031,17.806641 a 4.888857,4.888857 0 0 0 0,-6.914063 L 41.556641,8.7421875 A 4.888857,4.888857 0 0 0 38.099609,7.3105469 Z" />
  <path
     id="path269"
     sodipodi:type="inkscape:offset"
     inkscape:radius="1.1378697"
     inkscape:original="M 38.099609 12.199219 L 18.900391 31.400391 L 9.8496094 22.349609 L 7.6992188 24.5 L 18.900391 35.699219 L 40.25 14.349609 L 38.099609 12.199219 z "
     d="M 37.294922,11.394531 18.900391,29.791016 10.654297,21.544922 a 1.1379835,1.1379835 0 0 0 -1.6093751,0 l -2.1503907,2.15039 a 1.1379835,1.1379835 0 0 0 0,1.609376 L 18.095703,36.503906 a 1.1379835,1.1379835 0 0 0 1.609375,0 l 21.34961,-21.349609 a 1.1379835,1.1379835 0 0 0 0,-1.609375 l -2.150391,-2.150391 a 1.1379835,1.1379835 0 0 0 -1.609375,0 z"
     style="fill:#0aff00;fill-opacity:1" />
</svg>
