<?xml version="1.0" encoding="UTF-8" standalone="no"?>
<svg
   enable-background="new 0 0 24 24"
   height="24px"
   viewBox="0 0 24 24"
   width="24px"
   fill="#000000"
   version="1.1"
   id="svg6"
   sodipodi:docname="list.svg"
   inkscape:version="1.1.2 (76b9e6a115, 2022-02-25)"
   xmlns:inkscape="http://www.inkscape.org/namespaces/inkscape"
   xmlns:sodipodi="http://sodipodi.sourceforge.net/DTD/sodipodi-0.dtd"
   xmlns="http://www.w3.org/2000/svg"
   xmlns:svg="http://www.w3.org/2000/svg">
  <defs
     id="defs10" />
  <sodipodi:namedview
     id="namedview8"
     pagecolor="#505050"
     bordercolor="#eeeeee"
     borderopacity="1"
     inkscape:pageshadow="0"
     inkscape:pageopacity="0"
     inkscape:pagecheckerboard="0"
     showgrid="false"
     inkscape:zoom="20.75"
     inkscape:cx="12"
     inkscape:cy="12"
     inkscape:window-width="1850"
     inkscape:window-height="1016"
     inkscape:window-x="70"
     inkscape:window-y="27"
     inkscape:window-maximized="1"
     inkscape:current-layer="svg6" />
  <rect
     fill="none"
     height="24"
     width="24"
     id="rect2" />
  <path
     d="m 2.3022705,14.424432 h 2.4244324 c 0.6667189,0 1.2122162,-0.545497 1.2122162,-1.212216 v -2.424432 c 0,-0.666719 -0.5454973,-1.2122164 -1.2122162,-1.2122164 H 2.3022705 c -0.6667189,0 -1.2122162,0.5454974 -1.2122162,1.2122164 v 2.424432 c 0,0.666719 0.5454973,1.212216 1.2122162,1.212216 z m 0,6.061081 h 2.4244324 c 0.6667189,0 1.2122162,-0.545497 1.2122162,-1.212216 v -2.424432 c 0,-0.666719 -0.5454973,-1.212216 -1.2122162,-1.212216 H 2.3022705 c -0.6667189,0 -1.2122162,0.545497 -1.2122162,1.212216 v 2.424432 c 0,0.666719 0.5454973,1.212216 1.2122162,1.212216 z m 0,-12.1221616 h 2.4244324 c 0.6667189,0 1.2122162,-0.5454972 1.2122162,-1.2122161 V 4.7267029 c 0,-0.6667189 -0.5454973,-1.2122162 -1.2122162,-1.2122162 H 2.3022705 c -0.6667189,0 -1.2122162,0.5454973 -1.2122162,1.2122162 v 2.4244324 c 0,0.6667189 0.5454973,1.2122161 1.2122162,1.2122161 z M 8.3633514,14.424432 H 21.697729 c 0.666719,0 1.212217,-0.545497 1.212217,-1.212216 v -2.424432 c 0,-0.666719 -0.545498,-1.2122164 -1.212217,-1.2122164 H 8.3633514 c -0.6667189,0 -1.2122161,0.5454974 -1.2122161,1.2122164 v 2.424432 c 0,0.666719 0.5454972,1.212216 1.2122161,1.212216 z m 0,6.061081 H 21.697729 c 0.666719,0 1.212217,-0.545497 1.212217,-1.212216 v -2.424432 c 0,-0.666719 -0.545498,-1.212216 -1.212217,-1.212216 H 8.3633514 c -0.6667189,0 -1.2122161,0.545497 -1.2122161,1.212216 v 2.424432 c 0,0.666719 0.5454972,1.212216 1.2122161,1.212216 z M 7.1511353,4.7267029 v 2.4244324 c 0,0.6667189 0.5454972,1.2122161 1.2122161,1.2122161 H 21.697729 c 0.666719,0 1.212217,-0.5454972 1.212217,-1.2122161 V 4.7267029 c 0,-0.6667189 -0.545498,-1.2122162 -1.212217,-1.2122162 H 8.3633514 c -0.6667189,0 -1.2122161,0.5454973 -1.2122161,1.2122162 z"
     id="path4"
     style="fill:#ffffff;fill-opacity:1;stroke:#000000;stroke-width:0.72733;stroke-miterlimit:4;stroke-dasharray:none;stroke-opacity:1" />
</svg>
