<?xml version="1.0" encoding="UTF-8" standalone="no"?>
<svg
   height="24px"
   viewBox="0 0 24 24"
   width="24px"
   fill="#FFFFFF"
   version="1.1"
   id="svg6"
   sodipodi:docname="menu_white_24dp.svg"
   inkscape:version="1.1.1 (26b7af14f2, 2022-01-19)"
   xmlns:inkscape="http://www.inkscape.org/namespaces/inkscape"
   xmlns:sodipodi="http://sodipodi.sourceforge.net/DTD/sodipodi-0.dtd"
   xmlns="http://www.w3.org/2000/svg"
   xmlns:svg="http://www.w3.org/2000/svg">
  <defs
     id="defs10" />
  <sodipodi:namedview
     id="namedview8"
     pagecolor="#505050"
     bordercolor="#eeeeee"
     borderopacity="1"
     inkscape:pageshadow="0"
     inkscape:pageopacity="0"
     inkscape:pagecheckerboard="0"
     showgrid="false"
     inkscape:snap-global="false"
     inkscape:zoom="20.75"
     inkscape:cx="12"
     inkscape:cy="12"
     inkscape:window-width="1850"
     inkscape:window-height="1016"
     inkscape:window-x="70"
     inkscape:window-y="27"
     inkscape:window-maximized="1"
     inkscape:current-layer="svg6" />
  <path
     id="path4-3"
     sodipodi:type="inkscape:offset"
     inkscape:radius="0.75809628"
     inkscape:original="M 3 6 L 3 8 L 21 8 L 21 6 L 3 6 z M 3 11 L 3 13 L 21 13 L 21 11 L 3 11 z M 3 16 L 3 18 L 21 18 L 21 16 L 3 16 z "
     d="M 3,5.2421875 A 0.75817209,0.75817209 0 0 0 2.2421875,6 V 8 A 0.75817209,0.75817209 0 0 0 3,8.7578125 H 21 A 0.75817209,0.75817209 0 0 0 21.757812,8 V 6 A 0.75817209,0.75817209 0 0 0 21,5.2421875 Z M 3,10.242188 A 0.75817209,0.75817209 0 0 0 2.2421875,11 v 2 A 0.75817209,0.75817209 0 0 0 3,13.757812 H 21 A 0.75817209,0.75817209 0 0 0 21.757812,13 V 11 A 0.75817209,0.75817209 0 0 0 21,10.242188 Z m 0,5 A 0.75817209,0.75817209 0 0 0 2.2421875,16 v 2 A 0.75817209,0.75817209 0 0 0 3,18.757812 H 21 A 0.75817209,0.75817209 0 0 0 21.757812,18 V 16 A 0.75817209,0.75817209 0 0 0 21,15.242188 Z"
     style="fill:#000000;fill-opacity:1" />
  <path
     d="M0 0h24v24H0V0z"
     fill="none"
     id="path2" />
  <path
     d="M3 18h18v-2H3v2zm0-5h18v-2H3v2zm0-7v2h18V6H3z"
     id="path4" />
</svg>
