<?xml version="1.0" encoding="UTF-8" standalone="no"?>
<svg
   height="24px"
   viewBox="0 0 24 24"
   width="24px"
   fill="#000000"
   version="1.1"
   id="svg4"
   sodipodi:docname="mic.svg"
   inkscape:version="1.1.2 (76b9e6a115, 2022-02-25)"
   xmlns:inkscape="http://www.inkscape.org/namespaces/inkscape"
   xmlns:sodipodi="http://sodipodi.sourceforge.net/DTD/sodipodi-0.dtd"
   xmlns="http://www.w3.org/2000/svg"
   xmlns:svg="http://www.w3.org/2000/svg">
  <defs
     id="defs8" />
  <sodipodi:namedview
     id="namedview6"
     pagecolor="#505050"
     bordercolor="#eeeeee"
     borderopacity="1"
     inkscape:pageshadow="0"
     inkscape:pageopacity="0"
     inkscape:pagecheckerboard="0"
     showgrid="false"
     inkscape:zoom="20.75"
     inkscape:cx="12"
     inkscape:cy="12"
     inkscape:window-width="1850"
     inkscape:window-height="1016"
     inkscape:window-x="70"
     inkscape:window-y="27"
     inkscape:window-maximized="1"
     inkscape:current-layer="svg4" />
  <g
     id="path2">
    <path
       style="color:#000000;fill:#000000;-inkscape-stroke:none;paint-order:stroke fill markers"
       d="M 12,1.1992187 C 9.90948,1.1992187 8.1992188,2.90948 8.1992188,5 v 6 c 0,2.09052 1.7102612,3.800781 3.8007812,3.800781 2.09052,0 3.800781,-1.710261 3.800781,-3.800781 V 5 C 15.800781,2.90948 14.09052,1.1992187 12,1.1992187 Z m 0,1.6015626 c 1.229477,0 2.199219,0.969742 2.199219,2.1992187 v 6 c 0,1.229477 -0.969742,2.199219 -2.199219,2.199219 -1.229477,0 -2.1992187,-0.969742 -2.1992187,-2.199219 V 5 C 9.8007813,3.7705233 10.770523,2.8007813 12,2.8007813 Z M 6.0898437,10.199219 c -1.08213,0 -1.9533601,0.976297 -1.7910156,2.058594 v 0.0059 l 0.00195,0.0059 c 0.5066743,3.102088 2.8776997,5.503291 5.8984378,6.228516 V 20 c 0,0.986363 0.814418,1.800781 1.800781,1.800781 0.986363,0 1.800781,-0.814418 1.800781,-1.800781 v -1.501953 c 3.02013,-0.725079 5.391127,-3.125351 5.898438,-6.226563 v -0.002 c 0.181017,-1.093966 -0.707607,-2.070312 -1.789063,-2.070312 -0.881836,0 -1.629532,0.663991 -1.769531,1.521484 -0.34756,1.969396 -2.062136,3.478516 -4.140625,3.478516 -2.0784888,0 -3.7930652,-1.50912 -4.140625,-3.478516 C 7.7193761,10.86321 6.9716796,10.199219 6.0898437,10.199219 Z m 0,1.601562 c 0.098163,0 0.1714053,0.05523 0.1914063,0.177735 v 0.0039 0.0059 c 0.4757127,2.726646 2.8600889,4.8125 5.71875,4.8125 2.858661,0 5.243037,-2.085854 5.71875,-4.8125 v -0.0059 -0.0039 c 0.02,-0.122506 0.09324,-0.177735 0.191406,-0.177735 0.137869,0 0.228472,0.101828 0.210938,0.207032 v 0.002 0.002 c -0.433723,2.655447 -2.558522,4.736188 -5.234375,5.117187 l -0.6875,0.09766 V 20 c 0,0.113636 -0.08558,0.199219 -0.199219,0.199219 -0.113636,0 -0.199219,-0.08558 -0.199219,-0.199219 v -2.773438 l -0.6875,-0.09766 c -2.6731224,-0.38061 -4.7956974,-2.45781 -5.2324216,-5.109375 -0.016587,-0.11702 0.071759,-0.21875 0.2089843,-0.21875 z"
       id="path1011" />
    <path
       style="color:#000000;fill:#ffffff;stroke-width:1.6;-inkscape-stroke:none;paint-order:stroke fill markers"
       d="m 12,14 c 1.66,0 3,-1.34 3,-3 V 5 C 15,3.34 13.66,2 12,2 10.34,2 9,3.34 9,5 v 6 c 0,1.66 1.34,3 3,3 z m 5.91,-3 c -0.49,0 -0.9,0.36 -0.98,0.85 C 16.52,14.2 14.47,16 12,16 9.53,16 7.48,14.2 7.07,11.85 6.99,11.36 6.58,11 6.09,11 c -0.61,0 -1.09,0.54 -1,1.14 0.49,3 2.89,5.35 5.91,5.78 V 20 c 0,0.55 0.45,1 1,1 0.55,0 1,-0.45 1,-1 v -2.08 c 3.02,-0.43 5.42,-2.78 5.91,-5.78 0.1,-0.6 -0.39,-1.14 -1,-1.14 z"
       id="path1013" />
  </g>
</svg>
