<?xml version="1.0" encoding="UTF-8" standalone="no"?>
<svg
   enable-background="new 0 0 24 24"
   height="24px"
   viewBox="0 0 24 24"
   width="24px"
   fill="#000000"
   version="1.1"
   id="svg18"
   sodipodi:docname="person_search.svg"
   inkscape:version="1.1.2 (76b9e6a115, 2022-02-25)"
   xmlns:inkscape="http://www.inkscape.org/namespaces/inkscape"
   xmlns:sodipodi="http://sodipodi.sourceforge.net/DTD/sodipodi-0.dtd"
   xmlns="http://www.w3.org/2000/svg"
   xmlns:svg="http://www.w3.org/2000/svg">
  <defs
     id="defs22" />
  <sodipodi:namedview
     id="namedview20"
     pagecolor="#505050"
     bordercolor="#eeeeee"
     borderopacity="1"
     inkscape:pageshadow="0"
     inkscape:pageopacity="0"
     inkscape:pagecheckerboard="0"
     showgrid="false"
     inkscape:zoom="20.75"
     inkscape:cx="12"
     inkscape:cy="12"
     inkscape:window-width="1850"
     inkscape:window-height="1016"
     inkscape:window-x="70"
     inkscape:window-y="27"
     inkscape:window-maximized="1"
     inkscape:current-layer="svg18" />
  <g
     id="g6">
    <rect
       fill="none"
       height="24"
       width="24"
       id="rect2" />
    <rect
       fill="none"
       height="24"
       width="24"
       id="rect4" />
  </g>
  <g
     id="g16"
     style="fill:#ffffff;stroke:#000000;stroke-width:1.6;paint-order:stroke fill markers">
    <g
       id="g14">
      <g
         id="circle8">
        <path
           style="color:#000000;fill:#000000;stroke:none;-inkscape-stroke:none"
           d="M 10,3.1992188 C 7.3585115,3.1992188 5.1992187,5.3585115 5.1992187,8 c 0,2.641488 2.1592928,4.800781 4.8007813,4.800781 2.641488,0 4.800781,-2.159293 4.800781,-4.800781 0,-2.6414885 -2.159293,-4.8007812 -4.800781,-4.8007812 z m 0,1.6015624 c 1.776785,0 3.199219,1.4224337 3.199219,3.1992188 0,1.7767851 -1.422434,3.199219 -3.199219,3.199219 C 8.2232149,11.199219 6.8007812,9.7767851 6.8007812,8 6.8007812,6.2232149 8.2232149,4.8007813 10,4.8007812 Z"
           id="path978" />
        <path
           style="color:#000000;stroke:none;-inkscape-stroke:none"
           d="M 14,8 A 4,4 0 0 1 10,12 4,4 0 0 1 6,8 4,4 0 0 1 10,4 4,4 0 0 1 14,8 Z"
           id="path980" />
      </g>
      <g
         id="path10">
        <path
           style="color:#000000;fill:#000000;stroke:none;-inkscape-stroke:none"
           d="M 10.378906,13.210938 C 8.8612617,13.155346 6.7319796,13.48237 4.8652344,14.197266 3.9318618,14.554713 3.0656433,15.007462 2.3867188,15.615234 1.7077942,16.223007 1.1992187,17.04302 1.1992187,18 v 1 c 0,0.986363 0.8144186,1.800781 1.8007813,1.800781 H 13.330078 L 12.136719,19.466797 C 9.9558867,17.029916 11.074241,14.355414 11.09375,14.306641 l 0.421875,-1.054688 z M 9.3945313,14.976563 C 9.18018,15.990703 9.1665559,17.36047 10.158203,19.199219 H 3 C 2.8863638,19.199219 2.8007813,19.113636 2.8007813,19 v -1 c 0,-0.408019 0.19416,-0.781445 0.6542968,-1.193359 C 3.9152149,16.394727 4.6246243,16.002708 5.4375,15.691406 6.7549746,15.186862 8.1925847,15.046578 9.3945313,14.976563 Z"
           id="path984" />
        <path
           style="color:#000000;stroke:none;-inkscape-stroke:none"
           d="M 10.35,14.01 C 7.62,13.91 2,15.27 2,18 v 1 c 0,0.55 0.45,1 1,1 h 8.54 C 9.07,17.24 10.31,14.11 10.35,14.01 Z"
           id="path986" />
      </g>
      <g
         id="path12">
        <path
           style="color:#000000;fill:#000000;stroke:none;-inkscape-stroke:none"
           d="m 16.630859,11.246094 c -3.123054,-0.402425 -5.810525,2.274493 -5.394531,5.40039 0.266955,2.008236 1.811452,3.645879 3.789063,4.056641 1.010627,0.21175 1.942109,0.01034 2.773437,-0.341797 l 1.505859,1.503906 c 0.6946,0.6946 1.846417,0.6946 2.541016,0 0.694599,-0.694599 0.694599,-1.846416 0,-2.541015 L 20.349609,17.8125 c 0.353144,-0.83167 0.555226,-1.763882 0.34375,-2.775391 v -0.002 C 20.28273,13.05817 18.647591,11.501793 16.632812,11.246094 Z m -0.203125,1.58789 h 0.002 c 1.30379,0.164938 2.427425,1.227708 2.697266,2.529297 0.17677,0.843676 -0.002,1.597188 -0.386719,2.251953 l -0.3125,0.529297 0.433594,0.4375 1.851563,1.873047 h 0.002 c 0.0854,0.0854 0.0854,0.193897 0,0.279297 -0.0854,0.0854 -0.193897,0.0854 -0.279297,0 L 18.138672,18.4375 17.605469,18.75 c -0.654765,0.384675 -1.408277,0.563489 -2.251953,0.386719 h -0.002 c -1.300956,-0.269711 -2.355638,-1.390831 -2.529297,-2.701172 v -0.002 c -0.283915,-2.133417 1.469398,-3.875756 3.605468,-3.59961 z M 16,13.199219 c -1.536362,0 -2.800781,1.264419 -2.800781,2.800781 0,1.536362 1.264419,2.800781 2.800781,2.800781 1.536362,0 2.800781,-1.264419 2.800781,-2.800781 0,-1.536362 -1.264419,-2.800781 -2.800781,-2.800781 z m 0,1.601562 c 0.663636,0 1.199219,0.535583 1.199219,1.199219 0,0.663636 -0.535583,1.199219 -1.199219,1.199219 -0.663636,0 -1.199219,-0.535583 -1.199219,-1.199219 0,-0.663636 0.535583,-1.199219 1.199219,-1.199219 z"
           id="path990" />
        <path
           style="color:#000000;stroke:none;-inkscape-stroke:none"
           d="m 19.43,18.02 c 0.47,-0.8 0.7,-1.77 0.48,-2.82 -0.34,-1.64 -1.72,-2.95 -3.38,-3.16 -2.63,-0.34 -4.85,1.87 -4.5,4.5 0.22,1.66 1.52,3.04 3.16,3.38 1.05,0.22 2.02,-0.01 2.82,-0.48 l 1.86,1.86 c 0.39,0.39 1.02,0.39 1.41,0 v 0 c 0.39,-0.39 0.39,-1.02 0,-1.41 z M 16,18 c -1.1,0 -2,-0.9 -2,-2 0,-1.1 0.9,-2 2,-2 1.1,0 2,0.9 2,2 0,1.1 -0.9,2 -2,2 z"
           id="path992" />
      </g>
    </g>
  </g>
</svg>
