<?xml version="1.0" encoding="UTF-8" standalone="no"?>
<svg
   aria-hidden="true"
   focusable="false"
   data-prefix="fas"
   data-icon="save"
   class="svg-inline--fa fa-save fa-w-14"
   role="img"
   viewBox="0 0 448 512"
   version="1.1"
   id="svg4"
   sodipodi:docname="save.svg"
   inkscape:version="1.1.2 (76b9e6a115, 2022-02-25)"
   xmlns:inkscape="http://www.inkscape.org/namespaces/inkscape"
   xmlns:sodipodi="http://sodipodi.sourceforge.net/DTD/sodipodi-0.dtd"
   xmlns="http://www.w3.org/2000/svg"
   xmlns:svg="http://www.w3.org/2000/svg">
  <defs
     id="defs8" />
  <sodipodi:namedview
     id="namedview6"
     pagecolor="#505050"
     bordercolor="#eeeeee"
     borderopacity="1"
     inkscape:pageshadow="0"
     inkscape:pageopacity="0"
     inkscape:pagecheckerboard="0"
     showgrid="false"
     showguides="false"
     inkscape:lockguides="false"
     inkscape:zoom="1.3755437"
     inkscape:cx="255.89881"
     inkscape:cy="254.44484"
     inkscape:window-width="1850"
     inkscape:window-height="1016"
     inkscape:window-x="70"
     inkscape:window-y="27"
     inkscape:window-maximized="1"
     inkscape:current-layer="svg4" />
  <g
     id="path2">
    <path
       style="color:#000000;fill:#ffffff;stroke-width:27.9331;-inkscape-stroke:none"
       d="M 419.47692,138.62595 341.37405,60.523084 A 44.692995,44.692995 0 0 0 309.77144,47.432692 H 60.125687 c -24.683569,0 -44.692995,20.009426 -44.692995,44.692995 V 419.87431 c 0,24.68357 20.009426,44.693 44.692995,44.693 H 387.87431 c 24.68357,0 44.693,-20.00943 44.693,-44.693 V 170.22856 A 44.692995,44.692995 0 0 0 419.47692,138.62595 Z M 224,404.97665 c -32.9108,0 -59.59066,-26.67986 -59.59066,-59.59066 0,-32.9108 26.67986,-59.59066 59.59066,-59.59066 32.9108,0 59.59066,26.67986 59.59066,59.59066 0,32.9108 -26.67986,59.59066 -59.59066,59.59066 z m 89.38599,-283.53981 v 93.59458 c 0,6.17043 -5.00282,11.17325 -11.17325,11.17325 H 86.1966 c -6.170426,0 -11.173248,-5.00282 -11.173248,-11.17325 V 118.1966 c 0,-6.17043 5.002822,-11.17325 11.173248,-11.17325 h 212.7759 c 2.9637,0 5.80543,1.17692 7.90042,3.27283 l 3.24024,3.24024 a 11.169524,11.169524 0 0 1 3.27283,7.90042 z"
       id="path823" />
    <path
       style="color:#000000;fill:#000000;-inkscape-stroke:none"
       d="m 60.125,33.466797 c -32.231409,0 -58.6582031,26.426794 -58.6582031,58.658203 v 327.75 c 0,32.23141 26.4267921,58.6582 58.6582031,58.6582 h 327.75 c 32.23141,0 58.6582,-26.42679 58.6582,-58.6582 V 170.22852 c -8e-5,-15.55207 -6.18267,-30.48159 -17.17968,-41.47852 L 351.25,50.646484 C 340.25307,39.64947 325.32355,33.466876 309.77148,33.466797 Z m 0,27.93164 h 249.64648 c 8.15451,4.2e-5 15.96048,3.233875 21.72657,9 l 78.10351,78.103513 c 5.76613,5.76609 8.99996,13.57206 9,21.72657 V 419.875 c 0,17.13568 -13.59088,30.72656 -30.72656,30.72656 H 60.125 c -17.135678,0 -30.726562,-13.59088 -30.726563,-30.72656 V 92.125 c 0,-17.135679 13.590884,-30.726562 30.726563,-30.726563 z m 26.072266,31.658204 c -13.719555,0 -25.140625,11.421069 -25.140625,25.140629 v 96.83398 c 0,13.71956 11.42107,25.14062 25.140625,25.14062 H 302.21289 c 13.71955,10e-6 25.14063,-11.42107 25.14063,-25.14062 V 121.4375 c 6.1e-4,-6.6629 -2.65336,-13.06651 -7.36524,-17.77734 v -0.002 l -3.23828,-3.23632 -0.002,-0.002 c -4.71103,-4.71205 -11.1151,-7.363279 -17.77539,-7.363279 z m 2.792968,27.933589 H 297.81445 l 1.60547,1.60547 v 89.64258 H 88.990234 Z M 224,271.82812 c -40.45895,0 -73.55664,33.09965 -73.55664,73.5586 0,40.45895 33.09769,73.55664 73.55664,73.55664 40.45895,0 73.55664,-33.09769 73.55664,-73.55664 0,-40.45895 -33.09769,-73.5586 -73.55664,-73.5586 z m 0,27.9336 c 25.36258,0 45.625,20.26242 45.625,45.625 0,25.36258 -20.26242,45.62305 -45.625,45.62305 -25.36258,0 -45.625,-20.26047 -45.625,-45.62305 0,-25.36258 20.26242,-45.625 45.625,-45.625 z"
       id="path825" />
  </g>
</svg>
