<?xml version="1.0" encoding="UTF-8" standalone="no"?>
<svg
   xmlns:dc="http://purl.org/dc/elements/1.1/"
   xmlns:cc="http://creativecommons.org/ns#"
   xmlns:rdf="http://www.w3.org/1999/02/22-rdf-syntax-ns#"
   xmlns:svg="http://www.w3.org/2000/svg"
   xmlns="http://www.w3.org/2000/svg"
   xmlns:sodipodi="http://sodipodi.sourceforge.net/DTD/sodipodi-0.dtd"
   xmlns:inkscape="http://www.inkscape.org/namespaces/inkscape"
   width="400"
   height="400"
   viewBox="0 0 400 400"
   version="1.1"
   preserveAspectRatio="xMidYMid"
   id="svg6"
   sodipodi:docname="startgg.svg"
   inkscape:version="1.0.1 (3bc2e813f5, 2020-09-07)">
  <metadata
     id="metadata12">
    <rdf:RDF>
      <cc:Work
         rdf:about="">
        <dc:format>image/svg+xml</dc:format>
        <dc:type
           rdf:resource="http://purl.org/dc/dcmitype/StillImage" />
        <dc:title></dc:title>
      </cc:Work>
    </rdf:RDF>
  </metadata>
  <defs
     id="defs10" />
  <sodipodi:namedview
     pagecolor="#ffffff"
     bordercolor="#666666"
     borderopacity="1"
     objecttolerance="10"
     gridtolerance="10"
     guidetolerance="10"
     inkscape:pageopacity="0"
     inkscape:pageshadow="2"
     inkscape:window-width="1297"
     inkscape:window-height="704"
     id="namedview8"
     showgrid="false"
     inkscape:snap-page="true"
     inkscape:snap-bbox="true"
     inkscape:bbox-paths="true"
     inkscape:bbox-nodes="true"
     inkscape:snap-bbox-edge-midpoints="true"
     inkscape:snap-bbox-midpoints="true"
     inkscape:object-paths="true"
     inkscape:snap-intersection-paths="true"
     inkscape:snap-smooth-nodes="true"
     inkscape:snap-midpoints="true"
     inkscape:zoom="0.88059701"
     inkscape:cx="186.58736"
     inkscape:cy="231.25838"
     inkscape:window-x="69"
     inkscape:window-y="27"
     inkscape:window-maximized="1"
     inkscape:current-layer="svg6"
     inkscape:document-rotation="0"
     inkscape:snap-global="true" />
  <rect
     style="color:#000000;overflow:visible;fill:#cd323c;fill-opacity:1;fill-rule:evenodd;stroke-width:30.2362;stroke-linecap:round;stroke-linejoin:round;paint-order:stroke fill markers"
     id="rect871"
     width="400"
     height="400"
     x="0"
     y="0" />
  <path
     style="fill:#ffffff;fill-opacity:1;stroke-width:0.333473"
     d="M 44.288256,361.7497 44.203515,323.49971 22.101764,323.41401 0,323.32831 v -9.6619 -9.66191 L 22.101764,303.9188 44.203515,303.8331 44.28726,151.91647 44.370995,0 h 31.692351 31.692374 l 0.0837,151.91661 0.0837,151.91663 146.03842,0.0837 L 400,304.00064 v 9.66593 9.66591 l -146.03839,0.0837 -146.03842,0.0837 -0.0848,38.24998 L 107.75356,400 H 76.063156 44.372897 Z M 144.7873,227.01481 V 210.6664 h 27.11865 27.11864 l 1.48584,-0.74999 c 0.81722,-0.4125 1.82485,-1.25968 2.23917,-1.88263 0.74393,-1.11852 0.75307,-1.26594 0.73409,-11.83333 l -0.0192,-10.70071 -0.81281,1.78819 c -2.59836,5.71652 -7.24855,9.6268 -13.51023,11.36056 -7.21118,1.99665 -21.25114,1.68429 -29.65281,-0.65971 -9.65538,-2.69378 -16.14883,-8.83314 -19.19086,-18.14437 -1.81014,-5.54057 -1.84964,-6.48568 -1.84249,-44.0541 0.005,-21.14855 0.13587,-35.53199 0.33862,-36.957199 1.99678,-14.032811 9.75913,-22.527482 23.31992,-25.519952 8.97896,-1.981403 23.26564,-1.632532 29.56373,0.72192 5.57011,2.082311 9.90355,6.728003 11.8705,12.725851 l 0.78889,2.405511 0.0889,-8.583329 0.0889,-8.583327 h 22.67996 22.67994 l -0.0103,70.583315 c -0.006,43.60459 -0.13403,71.53887 -0.33394,73.08329 -0.89955,6.94805 -3.33618,12.56655 -7.39462,17.05078 -4.30029,4.7515 -11.8311,8.27495 -21.01106,9.83056 -3.10301,0.52581 -7.04831,0.595 -39.89063,0.69952 l -36.44705,0.11598 z m 53.95027,-61.40128 c 1.90701,-0.47979 3.79267,-2.28065 4.35633,-4.16044 0.56395,-1.88073 0.59009,-48.9388 0.0282,-50.81256 -0.59493,-1.98401 -2.05888,-3.5111 -3.97578,-4.14727 -2.52103,-0.83664 -10.0124,-0.60662 -11.65564,0.35787 -1.60697,0.94322 -2.58784,2.52906 -2.83414,4.58213 -0.11436,0.95325 -0.16173,12.68318 -0.10527,26.0665 0.0996,23.63667 0.12164,24.36573 0.76984,25.46515 0.8282,1.40487 2.07352,2.35396 3.54387,2.70082 1.74665,0.41204 8.16223,0.37811 9.87258,-0.0522 z m 76.82542,61.40128 V 210.6664 h 27.11863 27.11864 l 1.46902,-0.74999 c 1.79405,-0.91597 2.66329,-2.05203 3.03297,-3.96394 0.34891,-1.80445 0.4034,-20.29358 0.0596,-20.26586 -0.13757,0.0114 -0.83545,1.23851 -1.55071,2.72759 -1.78952,3.72536 -4.7402,6.6655 -8.56959,8.53894 -5.10686,2.49839 -10.20997,3.2572 -19.6545,2.92251 -9.14056,-0.32394 -14.50817,-1.41939 -19.86624,-4.05442 -6.58139,-3.23663 -11.20221,-8.5589 -13.44696,-15.48816 -1.92318,-5.9366 -1.82576,-3.84295 -1.96222,-42.16666 -0.0885,-24.88547 -0.0143,-36.30828 0.25152,-38.630557 1.57966,-13.803295 8.88172,-22.459353 21.79414,-25.835386 4.70898,-1.231209 8.03537,-1.533489 16.56587,-1.505455 7.70785,0.02532 8.35855,0.07642 11.42242,0.895656 7.86002,2.101849 12.60226,6.457956 15.14201,13.909098 l 0.62489,1.833339 0.0891,-8.416659 0.0891,-8.416661 h 22.68506 22.68501 l -0.0987,72.249985 c -0.0935,68.35315 -0.13133,72.3848 -0.70203,74.74996 -2.82953,11.72771 -9.59674,18.64468 -21.65763,22.13688 -6.93464,2.00789 -6.41243,1.98403 -46.19239,2.11064 l -36.44705,0.11598 z m 53.87822,-61.38297 c 1.91647,-0.52307 3.47528,-1.82869 4.2932,-3.59593 0.70504,-1.52329 0.71099,-1.7397 0.71099,-25.86948 0,-27.20388 0.071,-26.34427 -2.35254,-28.47042 -1.64707,-1.44494 -3.31583,-1.77517 -8.30736,-1.64399 -4.884,0.12837 -6.04502,0.53401 -7.43739,2.5984 l -0.75176,1.1146 v 26.13391 c 0,27.89793 -0.0477,27.04932 1.60683,28.54547 0.37087,0.33534 1.32452,0.81245 2.11924,1.06024 1.76565,0.55053 8.26824,0.63226 10.11879,0.12721 z"
     id="path851" />
</svg>
