<svg width="24" height="24" viewBox="0 0 40 40" fill="none" xmlns="http://www.w3.org/2000/svg"><path d="M1.25 20h7.5A1.25 1.25 0 0 0 10 18.75v-7.5A1.25 1.25 0 0 1 11.25 10h27.5A1.25 1.25 0 0 0 40 8.75V1.25A1.25 1.25 0 0 0 38.75 0H10A10 10 0 0 0 0 10v8.75A1.25 1.25 0 0 0 1.25 20Z" fill="#3f80ff"/><path d="M38.75 20h-7.5A1.25 1.25 0 0 0 30 21.25v7.5A1.25 1.25 0 0 1 28.75 30H1.25A1.25 1.25 0 0 0 0 31.25v7.5A1.25 1.25 0 0 0 1.25 40H30A10 10 0 0 0 40 30V21.25A1.25 1.25 0 0 0 38.75 20Z" fill="#ff2768"/></svg>