<?xml version="1.0" encoding="UTF-8" standalone="no"?>
<svg
   aria-hidden="true"
   focusable="false"
   data-prefix="fas"
   data-icon="exchange-alt"
   class="svg-inline--fa fa-exchange-alt fa-w-16"
   role="img"
   viewBox="0 0 512 512"
   version="1.1"
   id="svg4"
   sodipodi:docname="swap.svg"
   inkscape:version="1.1.2 (76b9e6a115, 2022-02-25)"
   xmlns:inkscape="http://www.inkscape.org/namespaces/inkscape"
   xmlns:sodipodi="http://sodipodi.sourceforge.net/DTD/sodipodi-0.dtd"
   xmlns="http://www.w3.org/2000/svg"
   xmlns:svg="http://www.w3.org/2000/svg">
  <defs
     id="defs8" />
  <sodipodi:namedview
     id="namedview6"
     pagecolor="#505050"
     bordercolor="#eeeeee"
     borderopacity="1"
     inkscape:pageshadow="0"
     inkscape:pageopacity="0"
     inkscape:pagecheckerboard="0"
     showgrid="false"
     inkscape:snap-page="true"
     inkscape:snap-bbox="true"
     inkscape:bbox-paths="true"
     inkscape:bbox-nodes="true"
     inkscape:snap-bbox-edge-midpoints="true"
     inkscape:snap-bbox-midpoints="true"
     inkscape:zoom="1.3755437"
     inkscape:cx="268.25757"
     inkscape:cy="266.07661"
     inkscape:window-width="1850"
     inkscape:window-height="1016"
     inkscape:window-x="70"
     inkscape:window-y="27"
     inkscape:window-maximized="1"
     inkscape:current-layer="svg4" />
  <path
     fill="currentColor"
     d="m 23.985284,176.24497 v -14.50091 c 0,-12.01311 9.738274,-21.75138 21.751381,-21.75138 H 372.00736 V 96.48992 c 0,-19.365071 23.47246,-29.039904 37.13232,-15.380945 l 72.50461,72.504605 c 8.49392,8.49481 8.49392,22.26706 0,30.76098 l -72.50461,72.5046 c -13.6082,13.60549 -37.13232,4.06568 -37.13232,-15.38004 V 197.99636 H 45.736665 c -12.013107,0 -21.751381,-9.73827 -21.751381,-21.75139 z M 466.26334,314.00373 h -326.2707 v -43.50278 c 0,-19.31703 -23.43893,-29.07434 -37.13232,-15.38093 l -72.5046,72.50461 c -8.493914,8.49479 -8.493914,22.26705 0,30.76096 l 72.5046,72.5046 c 13.61999,13.61909 37.13232,4.04849 37.13232,-15.38003 v -43.50277 h 326.2707 c 12.01311,0 21.75137,-9.73826 21.75137,-21.75137 v -14.50093 c 0,-12.0131 -9.73826,-21.75136 -21.75137,-21.75136 z"
     id="path2"
     style="fill:#ffffff;fill-opacity:1;stroke:#000000;stroke-width:47.9706;stroke-miterlimit:4;stroke-dasharray:none;stroke-opacity:1;paint-order:stroke fill markers" />
</svg>
