<?xml version="1.0" encoding="UTF-8" standalone="no"?>
<svg
   aria-hidden="true"
   focusable="false"
   data-prefix="fas"
   data-icon="exchange-alt"
   class="svg-inline--fa fa-exchange-alt fa-w-16"
   role="img"
   viewBox="0 0 512 512"
   version="1.1"
   id="svg4"
   sodipodi:docname="swap.svg"
   inkscape:version="1.1.2 (76b9e6a115, 2022-02-25)"
   xmlns:inkscape="http://www.inkscape.org/namespaces/inkscape"
   xmlns:sodipodi="http://sodipodi.sourceforge.net/DTD/sodipodi-0.dtd"
   xmlns="http://www.w3.org/2000/svg"
   xmlns:svg="http://www.w3.org/2000/svg">
  <defs
     id="defs8" />
  <sodipodi:namedview
     id="namedview6"
     pagecolor="#505050"
     bordercolor="#eeeeee"
     borderopacity="1"
     inkscape:pageshadow="0"
     inkscape:pageopacity="0"
     inkscape:pagecheckerboard="0"
     showgrid="false"
     inkscape:snap-page="true"
     inkscape:snap-bbox="true"
     inkscape:bbox-paths="true"
     inkscape:bbox-nodes="true"
     inkscape:snap-bbox-edge-midpoints="true"
     inkscape:snap-bbox-midpoints="true"
     inkscape:zoom="1.3755437"
     inkscape:cx="268.25756"
     inkscape:cy="266.07661"
     inkscape:window-width="1850"
     inkscape:window-height="1016"
     inkscape:window-x="70"
     inkscape:window-y="27"
     inkscape:window-maximized="1"
     inkscape:current-layer="svg4" />
  <g
     id="path2">
    <path
       style="color:#000000;fill:#000000;-inkscape-stroke:none;paint-order:stroke fill markers"
       d="M 395.30664,50.933594 C 388.69293,50.688685 382.14773,51.827047 376.28711,54.25 360.65878,60.711207 348.02148,77.116834 348.02148,96.490234 V 116.00781 H 45.736328 C 20.760997,116.00781 0,136.7688 0,161.74414 v 14.5 c 0,24.97534 20.760997,45.73828 45.736328,45.73828 H 348.02148 V 241.5 c 0,19.39477 12.69012,35.84247 28.33399,42.26953 15.64386,6.42706 36.06898,3.74275 49.74219,-9.92773 l 0.002,-0.002 72.50391,-72.50586 c 17.66044,-17.66044 17.66095,-47.01883 0.002,-64.67968 L 426.09961,64.148437 C 417.54362,55.593009 406.32949,51.341775 395.30664,50.933594 Z m 0.68555,50.947266 67.11133,67.11328 -67.11133,67.11328 v -62.0957 H 47.970703 v -10.0332 H 395.99219 Z m -279.26367,123.0625 c -11.03395,0.40206 -22.266069,4.65472 -30.828129,13.2168 l -72.50586,72.5039 v 0.002 c -17.6590354,17.66085 -17.6585067,47.01923 0.002,64.67968 l 72.503907,72.50586 c 13.676375,13.67547 34.118879,16.35691 49.759769,9.92188 15.64089,-6.43503 28.31836,-22.87379 28.31836,-42.26367 V 395.99219 H 466.26367 C 491.23899,395.99219 512,375.23118 512,350.25586 v -14.5 c 0,-24.97532 -20.76101,-45.73828 -45.73633,-45.73828 H 163.97852 V 270.5 c 0,-19.3596 -12.60306,-35.73826 -28.22266,-42.2207 -5.85735,-2.43092 -12.40697,-3.57718 -19.02734,-3.33594 z m -0.72071,50.94922 v 62.0957 H 464.0293 v 10.0332 H 116.00781 v 62.09571 L 48.894531,343.00391 Z"
       id="path823" />
    <path
       style="color:#000000;fill:#ffffff;stroke-width:47.9706;-inkscape-stroke:none;paint-order:stroke fill markers"
       d="m 23.985284,176.24497 v -14.50091 c 0,-12.01311 9.738274,-21.75138 21.751381,-21.75138 H 372.00736 V 96.48992 c 0,-19.365071 23.47246,-29.039904 37.13232,-15.380945 l 72.50461,72.504605 c 8.49392,8.49481 8.49392,22.26706 0,30.76098 l -72.50461,72.5046 c -13.6082,13.60549 -37.13232,4.06568 -37.13232,-15.38004 V 197.99636 H 45.736665 c -12.013107,0 -21.751381,-9.73827 -21.751381,-21.75139 z M 466.26334,314.00373 h -326.2707 v -43.50278 c 0,-19.31703 -23.43893,-29.07434 -37.13232,-15.38093 l -72.5046,72.50461 c -8.493914,8.49479 -8.493914,22.26705 0,30.76096 l 72.5046,72.5046 c 13.61999,13.61909 37.13232,4.04849 37.13232,-15.38003 v -43.50277 h 326.2707 c 12.01311,0 21.75137,-9.73826 21.75137,-21.75137 v -14.50093 c 0,-12.0131 -9.73826,-21.75136 -21.75137,-21.75136 z"
       id="path825" />
  </g>
</svg>
