<?xml version="1.0" encoding="UTF-8" standalone="no"?>
<svg
   aria-hidden="true"
   focusable="false"
   data-prefix="fas"
   data-icon="undo"
   class="svg-inline--fa fa-undo fa-w-16"
   role="img"
   viewBox="0 0 512 512"
   version="1.1"
   id="svg4"
   sodipodi:docname="undo.svg"
   inkscape:version="1.1.2 (76b9e6a115, 2022-02-25)"
   xmlns:inkscape="http://www.inkscape.org/namespaces/inkscape"
   xmlns:sodipodi="http://sodipodi.sourceforge.net/DTD/sodipodi-0.dtd"
   xmlns="http://www.w3.org/2000/svg"
   xmlns:svg="http://www.w3.org/2000/svg">
  <defs
     id="defs8" />
  <sodipodi:namedview
     id="namedview6"
     pagecolor="#505050"
     bordercolor="#eeeeee"
     borderopacity="1"
     inkscape:pageshadow="0"
     inkscape:pageopacity="0"
     inkscape:pagecheckerboard="0"
     showgrid="false"
     inkscape:snap-bbox="true"
     inkscape:bbox-paths="true"
     inkscape:bbox-nodes="true"
     inkscape:snap-bbox-edge-midpoints="true"
     inkscape:snap-bbox-midpoints="true"
     inkscape:snap-page="true"
     inkscape:zoom="0.97265625"
     inkscape:cx="256"
     inkscape:cy="256"
     inkscape:window-width="1850"
     inkscape:window-height="1016"
     inkscape:window-x="70"
     inkscape:window-y="27"
     inkscape:window-maximized="1"
     inkscape:current-layer="svg4" />
  <g
     id="path2">
    <path
       style="color:#000000;fill:#000000;-inkscape-stroke:none;paint-order:stroke fill markers"
       d="M 35.509766,0.30664063 C 16.186905,0.30664063 0,16.493469 0,35.816406 V 219.73633 c 0,19.32294 16.186897,35.50976 35.509766,35.50976 H 219.42969 c 19.32286,0 35.50976,-16.18681 35.50976,-35.50976 v -44.06641 c 0,-19.32297 -16.1869,-35.50976 -35.50976,-35.50976 h -26.28516 c 19.71129,-11.00671 42.35545,-17.42188 66.68164,-17.42188 76.09879,0 137.08789,61.00461 137.08789,137.08789 0,76.09851 -61.0031,137.08594 -137.08789,137.08594 -35.00645,0 -66.63244,-12.95299 -90.82617,-34.36133 l -0.002,-0.002 c -13.90861,-12.3032 -35.53648,-11.56109 -48.60547,1.50781 L 89.210937,395.24023 C 75.05237,409.39585 75.772852,433.34466 90.507812,446.70117 135.23589,487.24947 194.79439,512 259.82617,512 398.62599,512 511.7047,399.10976 512,260.37305 512.29499,121.58922 400.4826,8.6669158 261.69531,7.6582031 h -0.002 C 207.20981,7.2627925 156.57249,24.304516 115.08789,53.429687 V 35.816406 c 0,-19.322942 -16.186904,-35.50976537 -35.509765,-35.50976537 z M 48.986328,49.292969 H 66.101562 V 171.33203 L 108.79492,123.91797 C 146.32567,82.238529 200.61168,56.201397 261.33789,56.642578 373.92874,57.460036 463.253,147.67044 463.01367,260.26953 c -0.24007,112.29711 -90.8274,202.74414 -203.1875,202.74414 -47.54867,0 -90.96276,-16.33647 -125.5293,-43.58398 l 12.16407,-12.16407 c 31.39923,24.15356 70.77733,38.63282 113.36523,38.63282 102.51323,0 186.07227,-83.54409 186.07227,-186.07227 0,-102.5122 -83.54368,-186.074217 -186.07227,-186.074217 -61.65233,0 -116.59239,30.113407 -150.40625,76.464847 L 81.021484,189.14453 H 205.95312 v 17.11524 H 48.986328 Z M 136.53906,399.23633 c 0.009,0.008 0.0187,0.0138 0.0273,0.0215 -0.008,-0.007 -0.0176,-0.0107 -0.0254,-0.0176 z"
       id="path823" />
    <path
       style="color:#000000;fill:#ffffff;stroke-width:48.986;-inkscape-stroke:none;paint-order:stroke fill markers"
       d="M 219.43013,230.75335 H 35.509862 c -6.084068,0 -11.016872,-4.93279 -11.016872,-11.01683 V 35.816991 c 0,-6.084042 4.932804,-11.016829 11.016872,-11.016829 h 44.067492 c 6.084068,0 11.016874,4.932787 11.016874,11.016829 V 107.52921 C 132.61718,60.860997 193.65708,31.658138 261.51644,32.151142 387.20609,33.063703 487.77362,134.62876 487.50646,260.32067 c -0.26716,125.51749 -102.10071,227.1863 -227.68112,227.1863 -58.83837,0 -112.46025,-22.32102 -152.8683,-58.9538 -4.68125,-4.24332 -4.89699,-11.52545 -0.42873,-15.99278 l 31.18416,-31.18405 c 4.10746,-4.10743 10.70657,-4.33053 15.05732,-0.48197 28.49331,25.21292 65.96903,40.51162 107.05555,40.51162 89.2991,0 161.58079,-72.26672 161.58079,-161.58015 0,-89.29783 -72.26701,-161.580157 -161.58079,-161.580157 -53.70359,0 -101.24506,26.142947 -130.61789,66.406697 h 90.22268 c 6.08407,0 11.01688,4.93279 11.01688,11.01682 v 44.06732 c 0,6.08404 -4.93281,11.01683 -11.01688,11.01683 z"
       id="path825" />
  </g>
</svg>
