<?xml version="1.0" encoding="UTF-8" standalone="no"?>
<svg
   height="48"
   width="48"
   version="1.1"
   id="svg20"
   sodipodi:docname="warning_FILL0_wght400_GRAD0_opsz48.svg"
   inkscape:version="1.2 (56b05e47e7, 2022-06-09, custom)"
   xmlns:inkscape="http://www.inkscape.org/namespaces/inkscape"
   xmlns:sodipodi="http://sodipodi.sourceforge.net/DTD/sodipodi-0.dtd"
   xmlns="http://www.w3.org/2000/svg"
   xmlns:svg="http://www.w3.org/2000/svg">
  <defs
     id="defs24" />
  <sodipodi:namedview
     id="namedview22"
     pagecolor="#505050"
     bordercolor="#eeeeee"
     borderopacity="1"
     inkscape:showpageshadow="0"
     inkscape:pageopacity="0"
     inkscape:pagecheckerboard="0"
     inkscape:deskcolor="#505050"
     showgrid="false"
     inkscape:zoom="9.8333333"
     inkscape:cx="21.711864"
     inkscape:cy="36.355932"
     inkscape:window-width="1846"
     inkscape:window-height="1016"
     inkscape:window-x="74"
     inkscape:window-y="27"
     inkscape:window-maximized="1"
     inkscape:current-layer="svg20" />
  <path
     id="path18-3"
     sodipodi:type="inkscape:offset"
     inkscape:radius="2.7626274"
     inkscape:original="M 24 4 L 2 42 L 46 42 L 24 4 z M 24 10 L 40.800781 39 L 7.1992188 39 L 24 10 z M 22.699219 19.400391 L 22.699219 30.599609 L 25.699219 30.599609 L 25.699219 19.400391 L 22.699219 19.400391 z M 24.199219 33.150391 C 23.765885 33.150391 23.408333 33.290885 23.125 33.574219 C 22.841667 33.857552 22.699219 34.217057 22.699219 34.650391 C 22.699219 35.083724 22.841667 35.441276 23.125 35.724609 C 23.408333 36.007943 23.765885 36.150391 24.199219 36.150391 C 24.632552 36.150391 24.992057 36.007943 25.275391 35.724609 C 25.558724 35.441276 25.699219 35.083724 25.699219 34.650391 C 25.699219 34.217057 25.558724 33.857552 25.275391 33.574219 C 24.992057 33.290885 24.632552 33.150391 24.199219 33.150391 z "
     d="m 24,1.2382812 a 2.7629036,2.7629036 0 0 0 -2.390625,1.3769532 l -22,37.9999996 A 2.7629036,2.7629036 0 0 0 2,44.761719 h 44 a 2.7629036,2.7629036 0 0 0 2.390625,-4.146485 l -22,-37.9999996 A 2.7629036,2.7629036 0 0 0 24,1.2382812 Z m 0,14.2734378 0.652344,1.126953 h -1.304688 z m -4.0625,7.011719 v 8.076171 A 2.7629036,2.7629036 0 0 0 21.087891,31.75 c -0.717516,0.782446 -1.150391,1.909049 -1.150391,2.900391 0,0.511878 0.114617,1.064766 0.320312,1.58789 h -8.265624 z m 8.523438,0.6875 7.546874,13.027343 h -7.865234 c 0.205568,-0.524633 0.318359,-1.078918 0.31836,-1.58789 -10e-7,-0.983908 -0.42884,-2.113713 -1.150391,-2.900391 a 2.7629036,2.7629036 0 0 0 1.150391,-1.150391 z"
     transform="matrix(0.92749026,0,0,0.92749026,1.7402337,1.6677239)"
     style="stroke-width:1.07818" />
  <path
     id="path18"
     sodipodi:type="inkscape:offset"
     inkscape:radius="0.65083361"
     inkscape:original="M 24 4 L 2 42 L 46 42 L 24 4 z M 24 10 L 40.800781 39 L 7.1992188 39 L 24 10 z M 22.699219 19.400391 L 22.699219 30.599609 L 25.699219 30.599609 L 25.699219 19.400391 L 22.699219 19.400391 z M 24.199219 33.150391 C 23.765885 33.150391 23.408333 33.290885 23.125 33.574219 C 22.841667 33.857552 22.699219 34.217057 22.699219 34.650391 C 22.699219 35.083724 22.841667 35.441276 23.125 35.724609 C 23.408333 36.007943 23.765885 36.150391 24.199219 36.150391 C 24.632552 36.150391 24.992057 36.007943 25.275391 35.724609 C 25.558724 35.441276 25.699219 35.083724 25.699219 34.650391 C 25.699219 34.217057 25.558724 33.857552 25.275391 33.574219 C 24.992057 33.290885 24.632552 33.150391 24.199219 33.150391 z "
     d="m 24,3.3496094 a 0.65089869,0.65089869 0 0 0 -0.5625,0.3242187 l -22,37.9999999 A 0.65089869,0.65089869 0 0 0 2,42.650391 h 44 a 0.65089869,0.65089869 0 0 0 0.5625,-0.976563 l -22,-37.9999999 A 0.65089869,0.65089869 0 0 0 24,3.3496094 Z m 0,7.9472656 15.671875,27.052734 H 8.328125 Z M 22.699219,18.75 a 0.65089869,0.65089869 0 0 0 -0.650391,0.650391 V 30.599609 A 0.65089869,0.65089869 0 0 0 22.699219,31.25 h 3 a 0.65089869,0.65089869 0 0 0 0.65039,-0.650391 V 19.400391 A 0.65089869,0.65089869 0 0 0 25.699219,18.75 Z m 1.5,13.75 c -0.574008,0 -1.134303,0.212427 -1.535157,0.613281 -0.400852,0.400853 -0.615234,0.961145 -0.615234,1.53711 0,0.575963 0.215439,1.135361 0.615234,1.535156 0.399796,0.399797 0.959192,0.615234 1.535157,0.615234 0.575964,0 1.136256,-0.214381 1.537109,-0.615234 0.400853,-0.400853 0.613281,-0.961148 0.613281,-1.535156 0,-0.574009 -0.211371,-1.1352 -0.613281,-1.53711 C 25.334417,32.71137 24.773226,32.5 24.199219,32.5 Z"
     style="fill:#fff000;fill-opacity:1;stroke-width:1.07818"
     transform="matrix(0.92749026,0,0,0.92749026,1.7402337,1.6677239)" />
</svg>
